<?xml version="1.0" encoding="UTF-8" standalone="no"?>
<svg
   xmlns:dc="http://purl.org/dc/elements/1.1/"
   xmlns:cc="http://creativecommons.org/ns#"
   xmlns:rdf="http://www.w3.org/1999/02/22-rdf-syntax-ns#"
   xmlns:svg="http://www.w3.org/2000/svg"
   xmlns="http://www.w3.org/2000/svg"
   viewBox="0 0 1978.7733 3850.0801"
   height="3850.0801"
   width="1978.7733"
   xml:space="preserve"
   id="svg2"
   version="1.1"><metadata
     id="metadata8"><rdf:RDF><cc:Work
         rdf:about=""><dc:format>image/svg+xml</dc:format><dc:type
           rdf:resource="http://purl.org/dc/dcmitype/StillImage" /></cc:Work></rdf:RDF></metadata><defs
     id="defs6" /><g
     transform="matrix(1.3333333,0,0,-1.3333333,0,3850.08)"
     id="g10"><g
       transform="scale(0.1)"
       id="g12"><path
         id="path14"
         style="fill:#e8e7e6;fill-opacity:1;fill-rule:nonzero;stroke:none"
         d="m 5584.51,0 c -6121.018,0.101563 -7093.62,1805 -3489.25,2587.3 1362.06,295.6 2649.78,417.8 3815.64,417.8 5123.7,0 7874.4,-2363.498 4036.43,-2758.897 C 8278.12,74.2031 6825.61,0 5584.51,0" /><path
         id="path16"
         style="fill:#f79074;fill-opacity:1;fill-rule:nonzero;stroke:none"
         d="m 8452.61,8868.2 c 3.96,-366 -333.12,-1004.1 -365,-1610.7 -31.83,-606.5 230.2,-3236 218.72,-3746.5 -18.54,-829.3 933.12,-707.9 969.57,29.9 207.83,1162.4 717.2,3793.2 647.87,5204.7" /><path
         id="path18"
         style="fill:#fabc8b;fill-opacity:1;fill-rule:nonzero;stroke:none"
         d="m 9382.9,4300 c -51.4,-321.2 -131.69,-726.4 -131.69,-726.4 -197.44,89.7 -448.04,-108.2 -575.27,-296.5 -64.06,236.9 -87.23,933.5 -87.23,933.5 283.35,-60.6 681.13,-58.1 794.19,89.4" /><path
         id="path20"
         style="fill:#f79074;fill-opacity:1;fill-rule:nonzero;stroke:none"
         d="M 5026.07,9005.1 C 4092.6,7610.8 3847.62,5016.5 3615.48,3989.7 c 115.25,-598.6 638.68,-566.3 931.17,-281.2 759.85,1058.4 1638.88,3310.9 1869.06,4795" /><g
         transform="scale(1.04055)"
         id="g22"><path
           id="path24"
           style="fill:#f79074;fill-opacity:1;fill-rule:nonzero;stroke:none"
           d="m 7017.52,16300 c -734.85,-443 -1204.9,-1454 -1345.13,-2327.1 -107.69,-670.3 992.85,-1749 1841.86,-1872.2 848.98,-123.2 1973.94,581.7 2211.83,1254.8 237.96,673 -29.21,2201.4 -608.7,2700.8" /></g><path
         id="path26"
         style="fill:#f79074;fill-opacity:1;fill-rule:nonzero;stroke:none"
         d="m 10030.4,14386.1 c 426.1,-1307 29.5,-4737.3 -185.28,-5747.6 -163.64,-769.6 -999.89,-985.6 -1331.96,-142.6 -332.07,843 -917.47,4240.4 -760.49,4900.2" /><path
         id="path28"
         style="fill:#f79074;fill-opacity:1;fill-rule:nonzero;stroke:none"
         d="m 5962.27,14533.8 c -426.72,-666.2 -1115.18,-4526.5 -1049.05,-5494.4 66.32,-971.5 728.99,-1426.8 1391.34,-609.1 785.06,969.2 1890.74,4224.5 1933.73,4676.1" /><g
         transform="scale(1.34857)"
         id="g30"><path
           id="path32"
           style="fill:#f79074;fill-opacity:1;fill-rule:nonzero;stroke:none"
           d="m 4087.64,15302.7 c -347.79,-827.9 1184.84,-3658.2 2293.19,-3325.4 905.69,272 1548.45,3415 671.05,3915.7 -713.06,407 -2675.33,97.5 -2964.24,-590.3" /></g><g
         transform="scale(1.38866)"
         id="g34"><path
           id="path36"
           style="fill:#f79074;fill-opacity:1;fill-rule:nonzero;stroke:none"
           d="m 4818.28,16258.7 c 204.32,-155.6 308.53,-591.5 193.41,-777.4 -287.67,-176.6 -336.14,-674.2 432.99,-642.1 769.1,32 804.15,533.3 534.16,659.5 -229.84,107.5 -274.23,695.5 -175.11,801.3" /></g><g
         transform="scale(1.37468)"
         id="g38"><path
           id="path40"
           style="fill:#f25542;fill-opacity:1;fill-rule:nonzero;stroke:none"
           d="m 5733.53,16300 c -65.81,-279.7 -386.16,-321 -400.46,-372.5 -47.37,-170.7 -178.21,-408.9 -311.96,-368.6 157.82,168.3 52.63,578.8 -23.88,734.1" /></g><path
         id="path42"
         style="fill:#f79074;fill-opacity:1;fill-rule:nonzero;stroke:none"
         d="m 3615.45,4028.8 c -74.8,-284.6 -875.62,-1133.3 -1034.13,-1583.6 -181.44,-515.5 260.27,-932.6 500.53,-1057 240.29,-124.3 941.02,196 1101.2,536.4 160.18,340.4 442.19,1878.6 442.19,1878.6" /><path
         id="path44"
         style="fill:#fabc8b;fill-opacity:1;fill-rule:nonzero;stroke:none"
         d="m 3828.49,4697.4 c -48.67,-321.7 -182.71,-804.2 -182.71,-804.2 257.01,61.5 411.86,-143.1 545.58,-352.6 132.99,206.1 335.86,783.1 335.86,783.1 -293.29,-28.4 -635.88,198.7 -698.73,373.7" /><path
         id="path46"
         style="fill:#151414;fill-opacity:1;fill-rule:nonzero;stroke:none"
         d="m 6141.5,15420.7 c -112.54,-292.6 -192.96,-594.1 -239.08,-881.2 -112.06,-697.5 1033.11,-1819.9 1916.55,-1948.1 883.41,-128.2 2053.99,605.3 2301.53,1305.7 74.7,211.2 101.6,503.5 86.1,822.9" /><path
         id="path48"
         style="fill:#151414;fill-opacity:1;fill-rule:nonzero;stroke:none"
         d="M 5662.47,14768.9 C 4908.8,13257 4743.52,10115.4 4488.28,9318.6 4232.99,8521.8 3702.53,6930.1 3952.01,5940.2 c 67.52,-442.4 1173.7,-765.5 1521.68,-544 811.67,372.7 1892.91,2975.5 2425.75,5288 180.22,782.3 465.25,2222.9 465.25,2222.9" /><path
         id="path50"
         style="fill:#151414;fill-opacity:1;fill-rule:nonzero;stroke:none"
         d="m 4052.98,6129.4 c -200.24,-30.1 -200.27,-190.3 -220.26,-500.6 -20,-310.3 -122.82,-472.1 -36.37,-796.7 286.67,-454.7 1057.47,-514.7 1237.69,-414.6 180.21,100.1 220.26,280.3 320.37,520.5 100.09,240.3 330.35,640.8 180.17,740.9" /><path
         id="path52"
         style="fill:#151414;fill-opacity:1;fill-rule:nonzero;stroke:none"
         d="m 10321.9,14426.1 c 500,-1955.4 88.1,-4721 -22,-5838.2 -110.2,-1117.2 -210.4,-2446.2 -637.13,-2991.1 -404.16,-319.8 -1262.95,-266.4 -1579.4,12.8 -336.44,519.5 -301.79,1913.2 -306.51,2822.2 -4.76,908.9 -156.65,3309.9 -128.32,4057.6" /><path
         id="path54"
         style="fill:#151414;fill-opacity:1;fill-rule:nonzero;stroke:none"
         d="m 8086.97,5859.1 c -189.41,-71.5 -125.68,-288.3 -79.96,-595.9 45.61,-307.5 -20.8,-427.3 131.9,-726.3 375.82,-384.4 1172.11,-281 1327.21,-145.2 155.13,135.8 126.32,320.4 173.73,576.3 47.32,255.9 158.16,695.8 -9.66,762.2" /><path
         id="path56"
         style="fill:#201f26;fill-opacity:1;fill-rule:nonzero;stroke:none"
         d="m 8225.24,11052.5 c -204.38,-1180.8 1.52,-4486.6 263.75,-5255.6 184.62,-194.6 591.49,-286.5 1036.83,-167.8 569.58,429.2 1246.88,6510.1 849.18,8343.4 -249.1,-230.1 -803.03,-659.7 -1819.87,-597.9 -1016.83,61.7 -2365.12,889.6 -2365.12,889.6 0,0 -357.84,-14.7 -684.24,-693.7 -353.99,-816.6 -551.61,-3822.2 -739.39,-4350 -187.77,-527.8 -811.8,-2143.1 -594.37,-3197.9 173.68,-217.3 1019.25,-527.9 1562.23,91.1 557.8,636 1704.02,2878 2243.48,5280.9 342.09,108 1009.61,432.3 1226.97,627.2 -326.02,-550.2 -939.82,-740.4 -979.45,-969.3" /><path
         id="path58"
         style="fill:#292935;fill-opacity:1;fill-rule:nonzero;stroke:none"
         d="M 6975.82,13707 C 6774.92,12918.5 6106,12387.1 5450.95,12387.3 5077.78,10015.6 5266.43,8242.6 5093.23,8009.7 c -173.19,-232.8 -307.44,729.7 -307.44,729.7 -269.36,-698.6 -606.34,-2526.8 -300.33,-2763.3 306.02,-236.6 884.84,31 1769.59,1738.7 999.66,1929.4 1289.07,3132.6 1358.65,3514.6 -445.98,-58.8 -687.54,99.9 -687.54,99.9 656.92,8.7 2239.79,587.4 2903,1327.3 -148.43,325.6 -131.58,612.1 -131.58,612.1 -849.96,-368.9 -1815.68,-90.6 -2721.76,438.3" /><path
         id="path60"
         style="fill:#d9d7cb;fill-opacity:1;fill-rule:nonzero;stroke:none"
         d="m 5260.12,12245 c -21.96,-9.8 80.07,-325.2 186.04,-346 114.06,-22.4 471.66,449.5 466.09,474.6 -5.56,25.1 -347.37,-271.2 -456.94,-253.1 -100.03,16.6 -173.23,134.2 -195.19,124.5" /><path
         id="path62"
         style="fill:#151414;fill-opacity:1;fill-rule:nonzero;stroke:none"
         d="m 6594.03,13742.4 c -220.28,-812.5 -950.88,-973.9 -1307.47,-827 -45.7,382.9 43.6,1272 608.23,1371.3 564.61,99.3 955.29,24.9 699.24,-544.3" /><path
         id="path64"
         style="fill:#201f26;fill-opacity:1;fill-rule:nonzero;stroke:none"
         d="m 6438.78,13675.8 c 42.25,-152.1 -445.19,-660.6 -925.13,-566.3 -45.38,102.8 17.78,548.7 166.62,614.3 148.84,65.6 694.15,183.7 758.51,-48" /><path
         id="path66"
         style="fill:#201f26;fill-opacity:1;fill-rule:nonzero;stroke:none"
         d="m 4109.86,5913.9 c -202.08,66 -177.11,-191.5 -191.87,-460.5 -14.76,-269 -80.28,-374.4 -57.52,-571.8 163.07,-380.3 784.03,-465.7 943.14,-384.2 159.12,81.5 240.62,420 333.77,646.6 93.14,226.7 189.84,379.7 34.9,440.1 -162.99,-46.6 -834.6,50.4 -1062.42,329.8" /><path
         id="path68"
         style="fill:#201f26;fill-opacity:1;fill-rule:nonzero;stroke:none"
         d="m 9588.74,5545.1 c 149.89,14.4 82.65,-176.9 22.48,-439.5 -60.25,-262.7 -35.18,-453 -111.61,-636.4 -232.87,-262.9 -873.56,-159.8 -1003.9,-37.4 -130.37,122.3 -115.08,470.1 -141.9,713.7 -26.87,243.5 -77.44,479.5 88.14,494.6 176.65,-114.2 848.07,-262.2 1146.79,-95" /><path
         id="path70"
         style="fill:#292935;fill-opacity:1;fill-rule:nonzero;stroke:none"
         d="m 5401.38,12759 c 131.41,-425.9 1003.33,-92.2 1192.65,676.4 -199.26,-481.2 -915.94,-729.7 -1192.65,-676.4" /><path
         id="path72"
         style="fill:#151414;fill-opacity:1;fill-rule:nonzero;stroke:none"
         d="m 9829.16,13716.1 c 81.82,-653.3 450.04,-1067.4 695.64,-1005.4 -0.6,344.3 -30.5,1119.4 -163.1,1308.5 -240.4,-124.7 -396.33,-215.2 -532.54,-303.1" /><path
         id="path74"
         style="fill:#201f26;fill-opacity:1;fill-rule:nonzero;stroke:none"
         d="m 10016.9,13672.1 c -104.19,-111.5 126.2,-791.6 415.6,-791.5 52.1,93.2 60.2,841.5 -70.8,915.4 -62.6,35.3 -279.6,-54.1 -344.8,-123.9" /><path
         id="path76"
         style="fill:#292935;fill-opacity:1;fill-rule:nonzero;stroke:none"
         d="m 10468.2,12576.9 c -166.8,-395.7 -759.03,222 -634.25,872.9 133.91,-520.4 388.65,-877 634.25,-872.9" /><path
         id="path78"
         style="fill:#292935;fill-opacity:1;fill-rule:nonzero;stroke:none"
         d="m 9717.05,12951.2 c 93.72,-422.6 442.55,-646.7 644.65,-688.1 90.7,-2211.1 -543.68,-6352.1 -991.96,-6582 -448.28,-229.9 -703.23,1128.1 -786.03,3022 -82.8,1893.9 -51.79,2338.9 51.72,2421.7 103.53,82.8 787.19,719.9 817.93,1327.6" /><path
         id="path80"
         style="fill:#292935;fill-opacity:1;fill-rule:nonzero;stroke:none"
         d="m 4144.12,5805.3 c -58.25,67.1 -60.64,-258.7 -89.96,-408.8 -29.32,-150.1 -144.7,-495.8 -86.42,-610.6 58.28,-114.8 321.97,-289.8 587.07,-263.9 204.84,98.3 215.18,750.3 308.32,848.6 93.15,98.4 155.25,210.7 15.53,205.6 -139.72,-5.2 -599.74,73.8 -734.54,229.1" /><path
         id="path82"
         style="fill:#292935;fill-opacity:1;fill-rule:nonzero;stroke:none"
         d="m 8751.6,5499.8 c -164.03,49.4 6.91,-265.6 16.62,-418.2 9.66,-152.7 -22.26,-531.6 51.81,-651.4 74.07,-119.9 526.98,-95.2 623.29,39 96.33,134.2 48.86,673.7 114.01,792.4 65.19,118.8 96.35,244.4 -37.12,202.7 -276.75,-86.4 -571.71,-23.8 -768.61,35.5" /><g
         transform="scale(1.32541)"
         id="g84"><path
           id="path86"
           style="fill:#aba491;fill-opacity:1;fill-rule:nonzero;stroke:none"
           d="m 9431.05,16076.8 c -218.12,-158.1 620.45,-1031.8 774.05,-795.1 160.1,246.9 -465.92,1018.3 -774.05,795.1" /></g><g
         transform="scale(1.33435)"
         id="g88"><path
           id="path90"
           style="fill:#f79074;fill-opacity:1;fill-rule:nonzero;stroke:none"
           d="m 7054.41,16010.6 c 232.96,289.4 1626.58,-1004.9 2162.2,-1263.3 358.75,-173 181.06,-809.4 -232.55,-883.8 -413.53,-74.5 -1639.92,718.1 -1705.46,788.7" /></g><g
         transform="scale(1.39485)"
         id="g92"><path
           id="path94"
           style="fill:#f79074;fill-opacity:1;fill-rule:nonzero;stroke:none"
           d="m 8302.81,14125.6 c -67.75,546.2 970.78,1268 1238.84,1818.3 157.07,356.1 986.25,177 470.45,-379.6 C 9759.73,14713.6 9077.44,13307 8524.48,13262" /></g><g
         transform="scale(1.42976)"
         id="g96"><path
           id="path98"
           style="fill:#f79074;fill-opacity:1;fill-rule:nonzero;stroke:none"
           d="m 9481.36,16053.3 c 157.23,124.7 413.5,246.7 552.34,198.5 153,-53.2 264.4,-574.9 194,-823.2 -169.7,-234.5 -345.22,-346.8 -555.12,-252.2" /></g><g
         transform="scale(1.41291)"
         id="g100"><path
           id="path102"
           style="fill:#f25542;fill-opacity:1;fill-rule:nonzero;stroke:none"
           d="m 9873,16290.2 c 69.72,-180.3 53.93,-513.8 0,-624.7 180.1,-19.3 229.3,-104.2 310,-147 152.2,11.4 131,358.9 30.2,564.3 -100.8,205.3 -264.33,217.2 -340.2,207.4" /></g><g
         transform="scale(1.46604)"
         id="g104"><path
           id="path106"
           style="fill:#f79074;fill-opacity:1;fill-rule:nonzero;stroke:none"
           d="m 9096.1,15077.6 c -53.21,201.2 -14.94,543 71.69,659 160.84,215.2 89.97,458.1 188.6,518.7 72.78,44.7 243.18,-224.1 116.17,-527 138.4,-178.6 93.85,-489.5 44.13,-568.7" /></g><g
         transform="scale(1.37217)"
         id="g108"><path
           id="path110"
           style="fill:#f79074;fill-opacity:1;fill-rule:nonzero;stroke:none"
           d="m 10666,16300 c 265.8,-95.9 133.1,-327.2 -55.6,-376.7 -149.1,-39.1 -345,92.2 -35.9,182.1" /></g><g
         transform="scale(1.39264)"
         id="g112"><path
           id="path114"
           style="fill:#f79074;fill-opacity:1;fill-rule:nonzero;stroke:none"
           d="m 10408.8,16300 c 353.9,-36.3 262.3,-359.2 47,-477.1 -170.4,-93.3 -449.7,7.4 -99.5,211.5" /></g><g
         transform="scale(1.41207)"
         id="g116"><path
           id="path118"
           style="fill:#f79074;fill-opacity:1;fill-rule:nonzero;stroke:none"
           d="m 10163.8,16300 c 390.2,-13.3 314.2,-373.8 87.1,-519.1 -179.6,-114.9 -493.08,-25.5 -124.8,224.2" /></g><g
         transform="scale(1.42905)"
         id="g120"><path
           id="path122"
           style="fill:#f79074;fill-opacity:1;fill-rule:nonzero;stroke:none"
           d="m 9907.32,16265.8 c 384.48,34.2 353.48,-328.7 148.28,-498.6 -162.2,-134.4 -457.43,-94.9 -149.47,204.8 42.69,41.6 76.98,113.1 76.98,113.1" /></g><g
         transform="scale(1.30726)"
         id="g124"><path
           id="path126"
           style="fill:#d9d7cb;fill-opacity:1;fill-rule:nonzero;stroke:none"
           d="m 8630.82,15616.9 c 117.8,-91.4 261.31,-146.8 261.31,-146.8 142.43,324.6 519.48,632 669.87,829.9 -36.48,-244.2 600.7,-774.4 784.8,-806.1 -164.3,-490.8 -789.62,-1295.7 -1082.6,-1392.1 -292.9,-96.3 -791.65,149.2 -997.58,275.8" /></g><g
         transform="scale(1.29721)"
         id="g128"><path
           id="path130"
           style="fill:#f3ebee;fill-opacity:1;fill-rule:nonzero;stroke:none"
           d="m 9623.24,16300 c -211.45,-171.6 -621.02,-580.2 -658.26,-845.7 -37.23,-265.4 23.9,-566.4 23.9,-566.4 -111.7,119.6 -170.6,344.8 -170.6,344.8 -84.71,-253.1 -168.66,-584.2 -168.66,-584.2 119.87,-151.6 435.62,-231.5 615.16,-171.7 179.46,59.9 642.53,522.1 845.92,1236.1 -283.25,187.5 -431.57,420.6 -487.46,587.1" /></g><g
         transform="scale(1.24483)"
         id="g132"><path
           id="path134"
           style="fill:#1d1c22;fill-opacity:1;fill-rule:nonzero;stroke:none"
           d="m 8741.73,15062.8 c 174.72,166.1 486.17,1010.7 480.06,1237.2 23.22,-5.9 80.09,-38.2 80.09,-38.2 92.79,-148.2 -96.39,-1073 -375.39,-1295 -103.31,26 -184.76,96 -184.76,96" /></g><g
         transform="scale(1.32033)"
         id="g136"><path
           id="path138"
           style="fill:#c67a1b;fill-opacity:1;fill-rule:nonzero;stroke:none"
           d="m 7377.61,16300 c 346.73,-26.7 873.27,-523.6 1011.04,-638.2 137.76,-114.6 246.83,-121.6 273.34,-290.1 26.5,-168.4 -232.22,-1132.5 -348.4,-1220.7 -143.3,-108.8 -630.45,317.4 -771.51,305.6" /></g><g
         transform="scale(1.31682)"
         id="g140"><path
           id="path142"
           style="fill:#efa90f;fill-opacity:1;fill-rule:nonzero;stroke:none"
           d="m 7503.73,16291.5 c 183.43,8.5 854.21,-611.4 1084.08,-693.9 135.63,-306.5 -115.05,-996.8 -216.66,-1140.9 -219.54,85.8 -686.35,279 -835.92,1117.3 -112.34,629.5 -31.5,717.5 -31.5,717.5" /></g><g
         transform="scale(1.20152)"
         id="g144"><path
           id="path146"
           style="fill:#efa90f;fill-opacity:1;fill-rule:nonzero;stroke:none"
           d="m 9067.01,15973.5 c -16.39,-99.7 -60.17,-278.9 -60.17,-278.9 106.53,-12.7 236.2,136.2 357.21,605.4" /></g><g
         transform="scale(1.31988)"
         id="g148"><path
           id="path150"
           style="fill:#fbc130;fill-opacity:1;fill-rule:nonzero;stroke:none"
           d="m 7554.48,16165.7 c 100.82,134.3 755.19,-483 903.08,-550.9 -31.67,-266 -142.51,-633.1 -251.46,-643.8 -354.35,162.4 -786.77,1014.6 -651.62,1194.7" /></g><g
         transform="scale(1.26387)"
         id="g152"><path
           id="path154"
           style="fill:#fbc130;fill-opacity:1;fill-rule:nonzero;stroke:none"
           d="m 8965.94,16246.4 c 99.61,-48.1 50.48,-639.3 -223.76,-849.8 164.02,401.8 112.59,903.4 223.76,849.8" /></g><g
         transform="scale(1.24255)"
         id="g156"><path
           id="path158"
           style="fill:#1d1c22;fill-opacity:1;fill-rule:nonzero;stroke:none"
           d="m 9308.69,16194.4 c -39.59,-325.6 -11.91,-999.4 -183.97,-1278 106.15,-53.4 278.05,-83.1 278.05,-83.1 130.14,160 -42.49,1076.8 -49.01,1466.7" /></g><g
         transform="scale(1.19832)"
         id="g160"><path
           id="path162"
           style="fill:#1d1c22;fill-opacity:1;fill-rule:nonzero;stroke:none"
           d="m 10130.7,15393 c 3.4,159 -241.7,538.2 -313.89,907 118.17,-233.7 363.49,-470.6 544.89,-745.7 -106.4,-122.5 -231,-161.3 -231,-161.3" /></g><g
         transform="scale(1.25049)"
         id="g164"><path
           id="path166"
           style="fill:#1d1c22;fill-opacity:1;fill-rule:nonzero;stroke:none"
           d="m 9290.58,16186.9 c 28.15,-227.5 185.04,-580.7 843.12,-1073.8 55.2,35.9 143.1,171 143.1,171 -353.99,265.3 -839.48,693.1 -913.77,1015.9 -49.18,-40.7 -72.45,-113.1 -72.45,-113.1" /></g><g
         transform="scale(1.27031)"
         id="g168"><path
           id="path170"
           style="fill:#1d1c22;fill-opacity:1;fill-rule:nonzero;stroke:none"
           d="m 10248.9,15221.9 c 75.4,77.7 128,186.3 128,186.3 -340.1,109.8 -916.51,617.8 -975.16,891.8 0,0 -102.26,-117.6 -132.88,-175.3 52.51,-203.3 598.91,-719.5 980.04,-902.8" /></g><g
         transform="scale(1.29436)"
         id="g172"><path
           id="path174"
           style="fill:#1d1c22;fill-opacity:1;fill-rule:nonzero;stroke:none"
           d="m 10295.2,15310.9 c -444.72,115.9 -856.74,603.2 -927.82,836.3 57.4,74.7 146.79,152.8 146.79,152.8 110.79,-217.2 392.32,-592.4 893.73,-765.7 0,0 -91.9,-193.3 -112.7,-223.4" /></g><g
         transform="scale(1.29377)"
         id="g176"><path
           id="path178"
           style="fill:#31303d;fill-opacity:1;fill-rule:nonzero;stroke:none"
           d="m 9546.78,16255.6 c -27.83,44.4 -109.91,-103.8 -116.1,-161.3 -6.1,-57.5 272.93,-528.9 622.32,-636.4 33.4,24.4 77.4,193.3 77.4,193.3 -255.97,63.1 -479.27,437.8 -583.62,604.4" /></g><g
         transform="scale(1.2645)"
         id="g180"><path
           id="path182"
           style="fill:#31303d;fill-opacity:1;fill-rule:nonzero;stroke:none"
           d="m 9449.18,16300 c -36.85,-27.6 -117.68,-152.5 -117.68,-152.5 102.34,-179 409.26,-580.8 731.5,-700.6 40,55.1 100,144.1 100,144.1 -224.85,112.6 -621.77,478.8 -713.82,709" /></g><g
         transform="scale(1.24483)"
         id="g184"><path
           id="path186"
           style="fill:#31303d;fill-opacity:1;fill-rule:nonzero;stroke:none"
           d="m 9415.31,16300 c -38.16,-60.5 -56.87,-119.7 -56.87,-119.7 46.75,-286.8 399.73,-689 616.06,-795 63.5,24.9 111.9,148 111.9,148 -214.16,138.9 -551.87,462.4 -671.09,766.7" /></g><g
         transform="scale(1.24224)"
         id="g188"><path
           id="path190"
           style="fill:#31303d;fill-opacity:1;fill-rule:nonzero;stroke:none"
           d="m 9242.57,16261.7 c 3.38,38.3 47.1,23.2 76.64,-56 29.62,-79.1 -28.18,-550.7 -115.2,-760 -69.71,-48.1 -146.91,76.8 -146.91,76.8 70.92,270.8 177.18,645.3 185.47,739.2" /></g><g
         transform="scale(1.22384)"
         id="g192"><path
           id="path194"
           style="fill:#31303d;fill-opacity:1;fill-rule:nonzero;stroke:none"
           d="m 9518.98,16161.9 c -23.61,138.1 -74.02,0.3 -78.27,-201.8 -4.17,-202 -90.05,-583.6 93.06,-565.7 135.31,13.4 -6.21,717.1 -14.79,767.5" /></g><g
         transform="scale(1.20077)"
         id="g196"><path
           id="path198"
           style="fill:#31303d;fill-opacity:1;fill-rule:nonzero;stroke:none"
           d="m 9796.82,16289.2 c -30.06,-21.2 129.08,-558 232.48,-631.3 118.6,15.1 131.7,90.5 131.7,90.5 -101.4,165.9 -348.94,551.6 -364.18,540.8" /></g><g
         transform="scale(1.36825)"
         id="g200"><path
           id="path202"
           style="fill:#fabc8b;fill-opacity:1;fill-rule:nonzero;stroke:none"
           d="m 9799.22,16300 c -127.68,-285.4 -622.62,-829.6 -622.62,-829.6 88.51,-180.7 329.11,-383.9 472.28,-450 119.13,228 385.72,803.2 385.72,803.2 -246.78,228.1 -235.38,476.4 -235.38,476.4" /></g><g
         transform="scale(1.46093)"
         id="g204"><path
           id="path206"
           style="fill:#fabc8b;fill-opacity:1;fill-rule:nonzero;stroke:none"
           d="m 9395.38,16281.4 c -46.13,-10.4 -23.89,-151.4 -63.73,-286.9 -39.9,-135.5 -100.96,-191.5 -130.19,-283.1 -29.23,-91.5 -138.06,-480.4 69.07,-678 280.91,-267.9 486.26,-92.2 499.75,-45.6 13.48,46.6 -105.55,104.5 -169.69,108.1 -92.13,5.2 -175.98,-36.5 -175.98,-36.5 91.52,192.1 146.48,539.3 -6.44,717.3 109.18,229.3 59.56,523.3 -22.79,504.7" /></g><g
         transform="scale(1.42649)"
         id="g208"><path
           id="path210"
           style="fill:#fabc8b;fill-opacity:1;fill-rule:nonzero;stroke:none"
           d="m 9802.75,16232.9 c 141.47,67.1 281.15,50.8 357.25,-23.6 76.2,-74.4 5.4,-262.5 -133.8,-373.6 -139.11,-111.2 -220.64,-79.9 -223.45,-27.3 -2.87,52.7 216.55,292.3 258.25,326.8 -50.8,-9 -270.94,7 -258.25,97.7" /></g><g
         transform="scale(1.40498)"
         id="g212"><path
           id="path214"
           style="fill:#fabc8b;fill-opacity:1;fill-rule:nonzero;stroke:none"
           d="m 10402.1,16300 c 1.4,-105 -127.1,-314.9 -345.3,-360.5 -51.4,-45.4 26.1,-118.7 232,16.6 206,135.3 187.9,312.1 113.3,343.9" /></g><g
         transform="scale(1.38367)"
         id="g216"><path
           id="path218"
           style="fill:#fabc8b;fill-opacity:1;fill-rule:nonzero;stroke:none"
           d="m 10647.9,16294.4 c -73,-159.9 -207.6,-249.6 -337.3,-262.3 -54.8,-54.1 3.5,-136 222.3,-25.2 218.7,110.8 164.1,293.1 115,287.5" /></g><g
         transform="scale(1.36022)"
         id="g220"><path
           id="path222"
           style="fill:#fabc8b;fill-opacity:1;fill-rule:nonzero;stroke:none"
           d="m 10858.6,16300 c -44.3,-39.9 -147,-158.4 -281.1,-155.5 113.2,-84.2 373.8,65.9 281.1,155.5" /></g><g
         transform="scale(1.38925)"
         id="g224"><path
           id="path226"
           style="fill:#f6838b;fill-opacity:1;fill-rule:nonzero;stroke:none"
           d="m 10172.5,16290.7 c -42.8,9.3 -110.7,-62.7 -90.6,-103.1 19.8,-40.4 140.9,-11.1 142.2,23.5 1.3,34.5 -19.2,72.5 -51.6,79.6" /></g><g
         transform="scale(1.37356)"
         id="g228"><path
           id="path230"
           style="fill:#f6838b;fill-opacity:1;fill-rule:nonzero;stroke:none"
           d="m 10381.9,16283.5 c -41.2,16.5 -134.4,-31.6 -113.2,-72 15.4,-29.6 138.6,-34.8 145.8,-0.6 7.1,34.2 -1.5,60.1 -32.6,72.6" /></g><g
         transform="scale(1.36022)"
         id="g232"><path
           id="path234"
           style="fill:#f6838b;fill-opacity:1;fill-rule:nonzero;stroke:none"
           d="m 10573.5,16283.3 c -41.5,16.7 -135.6,-31.8 -114.3,-72.7 15.5,-29.9 140,-35.1 147.2,-0.6 7.2,34.5 -1.4,60.7 -32.9,73.3" /></g><g
         transform="scale(1.34946)"
         id="g236"><path
           id="path238"
           style="fill:#f6838b;fill-opacity:1;fill-rule:nonzero;stroke:none"
           d="m 10709.3,16285.2 c -30.9,14.8 -96.6,-27 -82.3,-59.3 10.4,-23.6 83,-36.2 100,-15.2 12.4,15.2 5.7,63.3 -17.7,74.5" /></g><g
         transform="scale(1.45998)"
         id="g240"><path
           id="path242"
           style="fill:#f6838b;fill-opacity:1;fill-rule:nonzero;stroke:none"
           d="m 9366.64,16300 c 29.11,-10.4 30.48,-97.5 21.58,-129.4 -8.84,-31.9 -46.86,-28.7 -58.84,-14.4 -6.72,53.4 24.18,135.2 37.26,143.8" /></g><g
         transform="scale(1.33407)"
         id="g244"><path
           id="path246"
           style="fill:#c67a1b;fill-opacity:1;fill-rule:nonzero;stroke:none"
           d="m 7676.53,14298.7 c 14.7,-283.6 -21.81,-909.5 21.82,-1618.6 43.7,-709.1 202.39,-1710.9 134.85,-1874 -67.54,-162.9 -416.59,-534.9 -1472.88,-524.5 -1056.33,10.3 -1814.16,631.3 -2275.67,635.3 9.87,506.5 282.51,1358.1 291.83,1473.9 9.32,115.8 -92.21,1009.7 -202.56,1374.1 -129.63,857 -280.27,1724.3 -158.27,1919.5 116.82,187 865.47,464.9 1002.95,440.7 148.35,-10.3 141.73,-299.5 584.59,-348 479.9,-52.5 720.85,189 677.95,490.1 401.53,32.8 917.28,-43.1 1092.57,-146.4 165.35,-97.5 -72.05,-874.1 302.82,-1822.1" /></g><path
         id="path248"
         style="fill:#efa90f;fill-opacity:1;fill-rule:nonzero;stroke:none"
         d="m 10361.7,14616.7 c 110.1,-7.7 114.5,-217.5 51.4,-301.1 -349.1,-549.3 -2174.81,-837.2 -3567.6,-173.7 -386.1,213.1 -62.09,253.1 -62.09,253.1 946.97,-476.9 2902.97,-577.9 3578.29,221.7" /><g
         transform="scale(1.32969)"
         id="g250"><path
           id="path252"
           style="fill:#efa90f;fill-opacity:1;fill-rule:nonzero;stroke:none"
           d="m 4745.42,16030.3 c -36.33,102 -618.77,-151.8 -650.7,-324 -67.3,-370.7 250.44,-1589.1 364.78,-1876.9 155.51,-391.5 398.33,-986.3 659.42,-1365.8 -70.39,-86.2 -370.22,367.7 -506.13,542.9 -48.33,-350.2 -72.23,-1313.4 -270.44,-1809.6 525.65,-192.7 1237.82,-593 2195.14,-565 957.35,28 1225.91,364.1 1255.08,447 -35.04,322.3 -182.37,1742.2 -217.41,2226.8 -21.96,304.6 11.95,1096.2 0.97,1786.8 -6.54,407.7 -172.9,855.1 -87.36,996.7 -216.34,210.8 -764.46,193.5 -764.46,193.5 99.21,-842 -1668.96,-1122.2 -1978.89,-252.4" /></g><g
         transform="scale(1.3247)"
         id="g254"><path
           id="path256"
           style="fill:#fbc130;fill-opacity:1;fill-rule:nonzero;stroke:none"
           d="m 4200.11,15825.6 c -4.94,-530.6 672.57,-2301.4 879.99,-2664.7 207.41,-363.2 397.69,-874.4 280.45,-968.2 -304.74,11.7 -568.64,361.8 -568.64,361.8 111.02,-411.6 -60.82,-989.3 23.47,-1243.6 532.26,-503.9 2337.57,-843.7 2841.51,-70.3 0,398.1 -298.23,1225.8 -259.69,2563 27,937 107.9,1958.6 67.04,2340 -262.13,149.5 -651.38,156.4 -651.38,156.4 -187.24,-899.1 -1648.69,-998.9 -2110.46,-242.9 -209.63,0 -502.29,-231.5 -502.29,-231.5" /></g><g
         transform="scale(1.33785)"
         id="g258"><path
           id="path260"
           style="fill:#efa90f;fill-opacity:1;fill-rule:nonzero;stroke:none"
           d="m 5068.47,16010.6 c -34.81,76 -284.72,9.7 -282.36,-83.3 3.98,-157.7 345.43,-667.2 1156.5,-520.8 729.06,131.5 716.22,732.3 662.07,797.4 -54.14,65.2 -320.31,96.1 -306.24,-8.3 14.08,-104.5 38.64,-407.8 -444.8,-484.3 -483.47,-76.6 -704.38,122.9 -785.17,299.3" /></g><g
         transform="scale(1.33551)"
         id="g262"><path
           id="path264"
           style="fill:#fbc130;fill-opacity:1;fill-rule:nonzero;stroke:none"
           d="m 6375.91,16169.7 c -35.47,-525.9 -1013.72,-645.7 -1317.02,-171.5 -224.76,21.6 -48.85,-441.7 539.92,-533.3 475.07,-73.9 807.98,144.5 889.17,368.2 116.92,322 -103.29,466.9 -112.07,336.6" /></g><path
         id="path266"
         style="fill:#fbc130;fill-opacity:1;fill-rule:nonzero;stroke:none"
         d="m 7409.64,14135.2 c -269.33,58 328.2,-399 1484.71,-332.6 1156.55,66.5 1410.35,626.4 1159.35,506.8 -250.91,-119.6 -1050.89,-516.9 -2644.06,-174.2" /><g
         transform="scale(1.20929)"
         id="g268"><path
           id="path270"
           style="fill:#292935;fill-opacity:1;fill-rule:nonzero;stroke:none"
           d="m 6276.66,16019.7 c -96.55,137.4 -346.63,280.3 -614.5,155.1 -267.94,-125.2 -158.17,-1212.7 203.41,-1413.3 361.6,-200.5 603.23,162 558.3,340.9 -44.93,178.8 -256.64,357.6 -296.47,275.7 -39.84,-82 -28.15,-264.5 -192.77,-285.6 -164.71,-21.1 -380.91,689.1 -121.66,825.5 259.28,136.6 212.62,-135.6 306.51,-148.8 93.92,-13.2 237.57,136.3 157.18,250.5" /></g><g
         transform="scale(1.19108)"
         id="g272"><path
           id="path274"
           style="fill:#292935;fill-opacity:1;fill-rule:nonzero;stroke:none"
           d="m 6649.34,15641.7 c -126.84,150.4 -22.88,411.8 115.34,408.6 121.18,-2.8 199.19,-180.7 145.07,-368.9 -38.42,-133.8 -197.68,-114.1 -260.41,-39.7 z m 23.66,616 c -208.77,42.3 -345.85,-281.7 -256.38,-598.8 65.74,-233.1 200.09,-433.5 394.82,-354.7 282.86,114.3 358.69,852.7 -138.44,953.5" /></g><g
         transform="scale(1.19791)"
         id="g276"><path
           id="path278"
           style="fill:#292935;fill-opacity:1;fill-rule:nonzero;stroke:none"
           d="m 7139.47,15319.9 c -49.07,79.6 -63.3,460.3 11.19,482.8 148.2,45 290.34,-89.1 242.23,-357.8 -19.22,-107.3 -171.87,-257.8 -253.42,-125 z m -52.74,-247.6 c 288.41,-146.4 533.4,124.1 546.88,554.1 11.5,368.8 -335.99,673.6 -548.56,565.2 -198.18,-101 -154.11,-300.4 -132.35,-501.1 33.93,-312 -51.39,-524.2 134.03,-618.2" /></g><g
         transform="scale(1.21812)"
         id="g280"><path
           id="path282"
           style="fill:#292935;fill-opacity:1;fill-rule:nonzero;stroke:none"
           d="m 7248.3,16189.1 c -6.29,-105.1 204.86,-196.5 290.13,-659.3 56.07,-304.2 -51.52,-487.3 11.12,-549.8 62.63,-62.4 394.9,-3.5 487.87,123 92.96,126.3 93.16,495.9 13.45,521.6 -79.65,25.6 -67.57,-158.5 -103.61,-237.2 -36.04,-78.8 -208.49,-187 -240.09,-101.8 -31.57,85.2 62.66,754.9 -49.68,884.6 -112.32,129.8 -405.61,78.5 -409.19,18.9" /></g><g
         transform="scale(1.06163)"
         id="g284"><path
           id="path286"
           style="fill:#292935;fill-opacity:1;fill-rule:nonzero;stroke:none"
           d="m 7405.06,16252.1 c 74.7,33.2 389.62,47.9 420.83,-22.2 31.23,-70.2 87.88,-243.1 12.54,-320 -75.29,-76.6 -351.25,-122.8 -407.6,4.9 -56.34,127.8 -74.31,315.8 -25.77,337.3" /></g><g
         transform="scale(1.07041)"
         id="g288"><path
           id="path290"
           style="fill:#292935;fill-opacity:1;fill-rule:nonzero;stroke:none"
           d="m 7935.11,16152.4 c -17.97,-60.9 14.77,-302.6 81.72,-351.1 66.99,-48.4 415.15,79.4 430.69,186.1 15.54,106.6 11.07,312.6 -100.3,310.9 -111.4,-1.8 -389.36,-68.4 -412.11,-145.9" /></g><g
         transform="scale(1.12609)"
         id="g292"><path
           id="path294"
           style="fill:#292935;fill-opacity:1;fill-rule:nonzero;stroke:none"
           d="m 6376.55,15667.2 c 283.5,-503.8 1704.49,-310.6 2081.01,400.8 189.43,-11.5 253.15,120.8 80.07,176.4 -173.09,55.6 -219.32,-69.3 -199.4,-158.3 19.92,-89.2 -282.71,-461.2 -994.75,-579.8 -712.02,-118.5 -919.51,132.7 -892.85,210.3 26.63,77.5 11.22,305.8 -188.94,131.7 -200.22,-174.3 40.81,-230.5 114.86,-181.1" /></g><path
         id="path296"
         style="fill:#191317;fill-opacity:1;fill-rule:nonzero;stroke:none"
         d="M 2395.18,1975 C 2107.06,1708.8 2162.26,680.203 2597.11,514.305 c 396.78,-151.301 844.25,59.297 1121.95,304.398 421.88,372.297 597.71,891.197 627.3,964.397 77.49,191.6 270.18,353.5 359.38,588.2 64.37,169.3 80.11,1031 14.26,1094.4" /><path
         id="path298"
         style="fill:#292935;fill-opacity:1;fill-rule:nonzero;stroke:none"
         d="M 2307.92,993.203 C 2389.43,756.504 2784.56,488.703 3386.48,826.305 3988.39,1164 4131.51,1761.9 4207.43,1992.7 4223.22,1496.8 3919.38,969.602 3479.98,690.504 3040.58,411.402 2412.71,333.402 2307.92,993.203" /><path
         id="path300"
         style="fill:#191317;fill-opacity:1;fill-rule:nonzero;stroke:none"
         d="m 4124.11,3375.4 c 142.26,277.1 -515.2,696.4 -680.59,340.6 -165.19,-355.9 -1220.95,-1682.7 -763.81,-1921.4 456.96,-238.7 1137.47,982.9 1444.4,1580.8" /><path
         id="path302"
         style="fill:#292935;fill-opacity:1;fill-rule:nonzero;stroke:none"
         d="m 3645.78,3819.4 c 57.55,42.7 396.47,-87.9 342.38,-211.2 -54.1,-123.4 -545.28,60.7 -342.38,211.2" /><path
         id="path304"
         style="fill:#292935;fill-opacity:1;fill-rule:nonzero;stroke:none"
         d="m 3492.24,3434.8 c 30.43,-144 -264.58,-611.3 -462.51,-889.2 -197.94,-277.8 -323.46,-528.9 -170.75,-584 237.51,-85.7 673.15,866.1 786.8,1148.1 113.63,282 -125.78,352.6 -153.54,325.1" /><path
         id="path306"
         style="fill:#2d5498;fill-opacity:1;fill-rule:nonzero;stroke:none"
         d="m 4662.84,3878.1 c -117.25,-178.2 -254.48,-419.1 -446.65,-442 -183.77,-21.9 -329,-9.5 -444.13,-199.3 -115.21,-189.8 -545.22,-1075.1 -672.35,-1232.3 -135.84,-190.9 -417.19,-60 -363.88,143.4 40.18,153.4 630.82,1077.3 717.87,1218.6 63.49,103 171.85,328.1 125.43,465.2 10.86,73.2 40.33,179.4 74.59,339.8 -101.36,97.8 -216.64,-57.3 -286.85,-316 -70.2,-258.6 -675.07,-1014.3 -964.99,-1409.9 -289.92,-395.8 -353.44,-1300 97,-1624.295 269.69,-194.102 1075.09,-133.403 1476.35,679.695 307.79,623.5 540.65,1568.9 691.19,1752.7 183.01,223.4 155.11,591.6 -3.58,624.4" /><path
         id="path308"
         style="fill:#4079c5;fill-opacity:1;fill-rule:nonzero;stroke:none"
         d="m 4654.17,3529.1 c -84.08,-288.1 -459.69,-434.9 -581.67,-429 -122.04,5.9 -267.88,-99 -93.89,-144.5 174.09,-45.4 307.62,-16.3 307.62,-16.3 -233.65,-414.7 -447.34,-1050 -619.77,-1326.2 -203.31,-326.1 -758.38,-601.1 -1145.42,-398 -394.16,206.8 -256.17,918.4 -86.47,1198.3 190.1,313.5 772.84,956.8 802.88,1030.4 31.56,-71 69.53,-86.2 117.53,-17.4 27.82,40.1 6.66,203.4 25.85,362.3 19.11,158.8 79.93,336.3 160.64,349.3 78.3,12.5 -28.77,-170.8 -20.28,-296.7 8.61,-127.4 -87.96,-415.9 -239.14,-663 -100.79,-164.8 -386.64,-610.1 -572.84,-969.1 -130.01,-250.6 261.82,-495 441.31,-215 117.07,182.6 293.2,512.7 396.62,715.8 232.62,457.3 315,707.6 525.27,676.3 311.54,-46.3 458.38,171.2 519.26,312.9 61.02,141.6 95.15,-58.1 62.5,-170.1" /><path
         id="path310"
         style="fill:#253956;fill-opacity:1;fill-rule:nonzero;stroke:none"
         d="m 3411.25,3609 c 85.49,-31.6 55.21,-163.8 -52.28,-139.3 -107.48,24.4 -51.54,177.7 52.28,139.3" /><path
         id="path312"
         style="fill:#1a3353;fill-opacity:1;fill-rule:nonzero;stroke:none"
         d="m 2645.6,2287.2 c 85.42,-31.6 55.09,-163.8 -52.33,-139.2 -107.46,24.6 -51.48,177.7 52.33,139.2" /><path
         id="path314"
         style="fill:#1a3353;fill-opacity:1;fill-rule:nonzero;stroke:none"
         d="m 2882.3,2715.9 c 85.4,-31.8 55.07,-163.7 -52.42,-139.3 -107.55,24.5 -51.57,177.7 52.42,139.3" /><path
         id="path316"
         style="fill:#1a3353;fill-opacity:1;fill-rule:nonzero;stroke:none"
         d="m 3140.13,3121.4 c 85.59,-31.7 55.14,-163.8 -52.38,-139.2 -107.35,24.5 -51.48,177.7 52.38,139.2" /><path
         id="path318"
         style="fill:#1a3353;fill-opacity:1;fill-rule:nonzero;stroke:none"
         d="m 3935.12,3287.1 c 87.15,-27.3 63.38,-160.7 -45.06,-141.5 -108.72,18.6 -60.7,174.4 45.06,141.5" /><path
         id="path320"
         style="fill:#1a3353;fill-opacity:1;fill-rule:nonzero;stroke:none"
         d="m 3238.75,1959.9 c 87.08,-27.1 63.26,-160.5 -45.11,-141.5 -108.73,18.8 -60.58,174.8 45.11,141.5" /><path
         id="path322"
         style="fill:#1a3353;fill-opacity:1;fill-rule:nonzero;stroke:none"
         d="m 3493.12,2391.7 c 87.1,-27.2 63.51,-160.6 -45.16,-141.6 -108.6,19 -60.51,174.8 45.16,141.6" /><path
         id="path324"
         style="fill:#1a3353;fill-opacity:1;fill-rule:nonzero;stroke:none"
         d="m 3712.17,2837.1 c 87.14,-27.2 63.44,-160.5 -45.17,-141.6 -108.55,18.9 -60.55,174.9 45.17,141.6" /><path
         id="path326"
         style="fill:#eae7d1;fill-opacity:1;fill-rule:nonzero;stroke:none"
         d="M 3872.69,3275.7 C 3701.9,3129.8 3223.38,3090 3122,3098.2 c -66.53,-33.9 -5.16,-90.8 -5.16,-90.8 150.42,-44.7 529.76,-33.8 791.69,168 57.51,63.8 6.98,130.9 -35.84,100.3" /><path
         id="path328"
         style="fill:#eae7d1;fill-opacity:1;fill-rule:nonzero;stroke:none"
         d="m 3426.23,3494.4 c -17.65,-221.4 224.85,-619.1 289.13,-693.5 11.4,-72.4 -68.79,-59 -68.79,-59 -121.5,90.6 -330.05,393.1 -320.37,720 17.43,83.3 99.63,84.7 100.03,32.5" /><path
         id="path330"
         style="fill:#eae7d1;fill-opacity:1;fill-rule:nonzero;stroke:none"
         d="m 3645.32,2834.9 c -175.34,-140.5 -662.07,-162.5 -765.11,-150.4 -67.94,-31.5 -6.54,-91.6 -6.54,-91.6 152.15,-50.6 537.7,-54 806.67,139.5 59.24,62 8.91,131.8 -35.02,102.5" /><path
         id="path332"
         style="fill:#eae7d1;fill-opacity:1;fill-rule:nonzero;stroke:none"
         d="m 3194.97,3072.8 c -21.19,-222.8 219.68,-633.4 284.11,-710.7 10.42,-73.4 -70.95,-57 -70.95,-57 -122.11,95.9 -329.74,409.2 -315.31,738.6 18.89,83.3 102.45,81.6 102.15,29.1" /><path
         id="path334"
         style="fill:#eae7d1;fill-opacity:1;fill-rule:nonzero;stroke:none"
         d="m 3404.88,2392.6 c -173.77,-131.9 -660.9,-134.8 -764.17,-118.9 -67.72,-28.7 -5.24,-90.4 -5.24,-90.4 153.36,-55.7 539.34,-74.1 806.03,106.7 58.31,59 6.92,129.9 -36.62,102.6" /><path
         id="path336"
         style="fill:#eae7d1;fill-opacity:1;fill-rule:nonzero;stroke:none"
         d="m 2950.38,2645.2 c -18.08,-219.3 228.92,-634.5 294.5,-713.5 11.86,-72.9 -70.01,-53.4 -70.01,-53.4 -123.71,99.5 -336.07,417.2 -326.49,742.2 18.07,81.7 101.66,76.6 102,24.7" /><path
         id="path338"
         style="fill:#eae7d1;fill-opacity:1;fill-rule:nonzero;stroke:none"
         d="m 3647.32,3447.4 c 137.56,101.9 551.28,176.8 624.41,-91.3 73.08,-268.3 -88.68,-502.2 -268.05,-454.3 -179.44,48.1 -333.59,441.3 -357.9,481.8 1.54,63.8 32.92,61.6 93.26,21.8 60.54,-39.5 215.64,-417.9 308.02,-409.9 124.14,10.9 151.07,292.7 82.95,384.4 -68.25,91.7 -387.06,46.3 -426.99,8.8" /><path
         id="path340"
         style="fill:#eae7d1;fill-opacity:1;fill-rule:nonzero;stroke:none"
         d="m 3615.63,3450.7 c -91.34,39.1 -752.69,-60.6 -1060.44,-296.2 -24.42,-49.7 11.13,-163.9 56.96,-117.6 45.74,46.2 704.29,368.9 1033.63,346.7" /><path
         id="path342"
         style="fill:#eae7d1;fill-opacity:1;fill-rule:nonzero;stroke:none"
         d="m 3704.44,3461.8 c -2.69,211.9 -376.7,486.7 -604.22,290.2 -227.25,-196.3 -139.35,-394.6 54.24,-319.2 193.72,75.4 393.71,-42.1 472.91,-35.6 79.1,6.8 35.87,57.1 -60.82,123 -157.61,107.7 -461.99,-27.4 -500.56,11.4 -38.9,38.5 118.1,215.5 294.38,182.2 126.96,-23.8 244.5,-159.9 245.77,-276.1" /><path
         id="path344"
         style="fill:#eae7d1;fill-opacity:1;fill-rule:nonzero;stroke:none"
         d="m 3687.53,3378 c -33.51,-90.7 -6.19,-433 425.93,-705.9 60.97,-36.1 12.98,-134.2 -71.34,-97.2 -84.14,36.8 -590.36,508.8 -431.39,822.6 36.59,49.9 76.8,-19.5 76.8,-19.5" /><path
         id="path346"
         style="fill:#eae7d1;fill-opacity:1;fill-rule:nonzero;stroke:none"
         d="m 3663.39,3532.3 c 74.83,-5.8 199.08,-199 46.54,-195.4 -152.29,3.5 -180.98,205.9 -46.54,195.4" /><path
         id="path348"
         style="fill:#191317;fill-opacity:1;fill-rule:nonzero;stroke:none"
         d="M 10899.1,1863 C 11232.9,1627.1 11032.2,974.602 10858,804.902 10521,476.305 9862.84,590.801 9430.13,976.004 9009.9,1349.9 8843.2,1716.2 8730.56,1690.7 c -112.68,-25.6 -415.02,277.6 -479.84,402.9 -64.81,125.4 -113.79,616 -65.04,646.3" /><path
         id="path350"
         style="fill:#292935;fill-opacity:1;fill-rule:nonzero;stroke:none"
         d="M 11027.1,1208.6 C 10960.3,1006.6 10610.7,668.703 9965.05,912.602 9319.41,1156.3 9046.58,1697.5 8937,1914.3 c 58.58,-492.7 467.87,-969.898 944.1,-1180.097 476.2,-210.199 1079.2,-109.703 1146,474.397" /><path
         id="path352"
         style="fill:#191317;fill-opacity:1;fill-rule:nonzero;stroke:none"
         d="m 8830.17,3087.2 c -163.33,238.7 460.13,650.9 652.62,343 192.39,-307.9 1347.71,-1421.7 910.61,-1672.3 -437.05,-250.6 -1210.83,814.3 -1563.23,1329.3" /><path
         id="path354"
         style="fill:#292935;fill-opacity:1;fill-rule:nonzero;stroke:none"
         d="m 9415.4,3265.7 c -8.58,-146.9 353.06,-564.8 590.3,-809.9 237.3,-245.1 341.2,-447.6 207.8,-540.2 -238.57,-165.6 -746.73,744 -901.28,1005.7 -154.54,261.8 71.61,367.5 103.18,344.4" /><path
         id="path356"
         style="fill:#292935;fill-opacity:1;fill-rule:nonzero;stroke:none"
         d="m 9234.36,3506.8 c -63.27,33.6 -366.92,-115.3 -294.99,-229.2 71.96,-113.8 518.15,110.7 294.99,229.2" /><path
         id="path358"
         style="fill:#2d5498;fill-opacity:1;fill-rule:nonzero;stroke:none"
         d="m 8193.48,3141.8 c -65.4,172.3 -23.47,363.1 108.83,408.9 7.59,-183.9 173.25,-437.9 431.95,-432.8 185.16,3.8 328.82,17 458.32,-145.1 129.49,-162.1 626.91,-926.6 765.82,-1058.4 150.2,-161.4 420.5,-21.6 351.5,157.6 -51.9,135.1 -712.33,921.8 -810.1,1042.5 -71.24,87.8 -255.01,386.5 -211.77,516 21.65,85.3 239.79,48 329.96,-179.7 90.07,-227.5 939.01,-879.4 1258.61,-1213.5 319.8,-334.2 324.8,-996.2 -91,-1258.198 -336.8,-212.297 -1139.89,-107.5 -1602.95,594.098 -93.41,141.5 -186.63,294.4 -276.55,445.6 -204.81,283.8 -660.51,452.2 -716.62,628.1 -42.58,133.4 -15.03,371.1 4,494.9" /><path
         id="path360"
         style="fill:#4079c5;fill-opacity:1;fill-rule:nonzero;stroke:none"
         d="m 8290.49,3167.9 c 106.21,-253.3 491.99,-356.4 613.15,-341.6 121.18,14.8 274.77,-68.4 104.85,-122.9 -169.99,-54.4 -305.41,-38.6 -305.41,-38.6 265.1,-355.6 621.77,-806.1 815.05,-1041.7 271.62,-331.2 988.77,-469.1 1274.57,-266.7 272.7,193.1 177.6,647 -35.7,914.2 -213.9,267.9 -1011.96,866.3 -1047.68,930.2 -25.89,-66.4 -89.11,-117.1 -142.32,-58.8 -30.81,33.9 -0.42,236.1 -31.86,377.8 -31.42,141.7 -248.22,111.8 -138.6,38.2 127.17,-85.4 119.01,-388.9 288.96,-599.8 113.32,-140.7 432.8,-519.8 646.3,-828.9 149,-215.9 -222.6,-466.5 -423.21,-228.1 -130.96,155.5 -332.13,439.4 -450.91,614.3 -267.43,394.1 -368.97,613.3 -576.2,568.8 -306.89,-66 -470.18,118.7 -541.84,241.6 -71.83,122.9 -90.4,-59.7 -49.15,-158" /><path
         id="path362"
         style="fill:#253956;fill-opacity:1;fill-rule:nonzero;stroke:none"
         d="m 9523.3,3336.2 c -82.79,-35.1 -42.29,-151.8 62.87,-121.5 105.32,30.5 37.6,164.2 -62.87,121.5" /><path
         id="path364"
         style="fill:#253956;fill-opacity:1;fill-rule:nonzero;stroke:none"
         d="m 10389.1,2204.5 c -82.7,-35.1 -42.2,-151.9 63,-121.5 105.2,30.6 37.5,164.3 -63,121.5" /><path
         id="path366"
         style="fill:#1a3353;fill-opacity:1;fill-rule:nonzero;stroke:none"
         d="m 10119.9,2572.4 c -82.7,-35.2 -42.2,-151.7 63.1,-121.4 105.3,30.4 37.6,164.2 -63.1,121.4" /><path
         id="path368"
         style="fill:#1a3353;fill-opacity:1;fill-rule:nonzero;stroke:none"
         d="m 9831.39,2918 c -82.87,-35.3 -42.23,-152 63.01,-121.5 105.11,30.4 37.55,164.1 -63.01,121.5" /><path
         id="path370"
         style="fill:#1a3353;fill-opacity:1;fill-rule:nonzero;stroke:none"
         d="m 9026.06,3005.4 c -84.79,-31.2 -50.7,-149.7 55.89,-124 106.96,25.4 46.97,162 -55.89,124" /><path
         id="path372"
         style="fill:#1a3353;fill-opacity:1;fill-rule:nonzero;stroke:none"
         d="m 9821.07,1889.3 c -84.73,-31.2 -50.62,-180.8 55.95,-155.2 106.94,25.5 46.83,193.4 -55.95,155.2" /><path
         id="path374"
         style="fill:#1a3353;fill-opacity:1;fill-rule:nonzero;stroke:none"
         d="m 9558,2234.5 c -84.77,-31.1 -50.85,-149.6 56,-124 106.75,25.5 46.74,162.2 -56,124" /><path
         id="path376"
         style="fill:#1a3353;fill-opacity:1;fill-rule:nonzero;stroke:none"
         d="m 9282.12,2630.8 c -84.8,-31.2 -50.81,-149.6 55.95,-124.2 106.77,25.5 46.83,162.3 -55.95,124.2" /><path
         id="path378"
         style="fill:#eae7d1;fill-opacity:1;fill-rule:nonzero;stroke:none"
         d="m 9089.24,3000.1 c 181.52,-118.2 661.59,-117 761.98,-101.7 69.04,-25.4 12.23,-81.5 12.23,-81.5 -146.4,-51.9 -525.4,-71.5 -802.16,89.9 -62.33,53.1 -17.14,117.5 27.95,93.3" /><path
         id="path380"
         style="fill:#eae7d1;fill-opacity:1;fill-rule:nonzero;stroke:none"
         d="m 9517.24,3231.9 c 34.76,-198.2 -176.07,-575.4 -234.43,-647.5 -5.61,-66.1 73.24,-47.8 73.24,-47.8 114.01,91 298.4,379.8 263.43,673.8 -23.85,73.7 -105.9,68.5 -102.24,21.5" /><path
         id="path382"
         style="fill:#eae7d1;fill-opacity:1;fill-rule:nonzero;stroke:none"
         d="m 9349.98,2620.4 c 185.79,-112.9 672.72,-95 774.52,-76 70.1,-23.2 13.5,-82.1 13.5,-82.1 -147.76,-57.4 -531.79,-90.5 -814.93,63.1 -63.82,51.3 -19.14,118.1 26.91,95" /><path
         id="path384"
         style="fill:#eae7d1;fill-opacity:1;fill-rule:nonzero;stroke:none"
         d="m 9780.55,2869.8 c 38.41,-199.1 -169.89,-587.9 -228.05,-662.5 -4.72,-66.9 75.21,-45.9 75.21,-45.9 114.21,96 296.83,394.4 256.89,690.2 -25.31,73.6 -108.46,65.5 -104.05,18.2" /><path
         id="path386"
         style="fill:#eae7d1;fill-opacity:1;fill-rule:nonzero;stroke:none"
         d="m 9624.06,2240.5 c 183.46,-105.4 669.24,-70.1 771.04,-47.8 69.7,-20.7 12.2,-81 12.2,-81 -148.6,-62.2 -531.88,-108.7 -811.73,33.5 -62.8,48.7 -16.99,116.6 28.49,95.3" /><path
         id="path388"
         style="fill:#eae7d1;fill-opacity:1;fill-rule:nonzero;stroke:none"
         d="m 10057.5,2503.5 c 35,-196.3 -178.89,-589.7 -238.13,-666 -6.2,-66.6 73.95,-42.7 73.95,-42.7 115.58,99.4 302.58,402.1 267.78,694.3 -24.3,72.2 -107.3,61.2 -103.6,14.4" /><path
         id="path390"
         style="fill:#eae7d1;fill-opacity:1;fill-rule:nonzero;stroke:none"
         d="m 9300.49,3172.3 c -145.03,81.2 -563.23,116.6 -615.35,-130.7 -52.06,-247.6 127.44,-445.8 302.54,-388.6 175.05,57.2 298.16,423.6 319.35,462 -6.54,57.3 -37.59,52.9 -94.73,12.4 -57.21,-40.4 -182.44,-393.4 -275.18,-393.3 -124.54,0.1 -173.33,252 -112.54,339.9 60.91,87.9 382.3,71.9 425,41" /><path
         id="path392"
         style="fill:#eae7d1;fill-opacity:1;fill-rule:nonzero;stroke:none"
         d="m 9331.83,3177.8 c 88.01,42.3 755.07,3.8 1080.07,-184.7 28.2,-42.8 1.7,-148.5 -47.6,-110.3 -49.3,38 -730.76,277.6 -1057.27,232.2" /><path
         id="path394"
         style="fill:#eae7d1;fill-opacity:1;fill-rule:nonzero;stroke:none"
         d="m 9242.51,3180.8 c -13.8,191.3 337.65,467.9 579.67,308.5 241.82,-159.3 169.57,-344.7 -29.25,-291.8 -198.95,52.9 -389.17,-68.6 -468.61,-68.8 -79.38,-0.2 -40.21,48.6 51,115.5 148.8,109.3 462.74,11.1 498.19,49.1 35.75,37.8 -134.53,185 -307.63,141.4 -124.71,-31.3 -231.29,-163.2 -223.61,-268" /><path
         id="path396"
         style="fill:#eae7d1;fill-opacity:1;fill-rule:nonzero;stroke:none"
         d="m 9265.86,3106.6 c 40.39,-79 39.78,-389.7 -369.82,-669.2 -57.99,-37.3 -2.54,-121.9 78.63,-82.1 81.07,39.7 549.04,504.4 366.19,774.9 -40.37,42.1 -75,-23.6 -75,-23.6" /><path
         id="path398"
         style="fill:#eae7d1;fill-opacity:1;fill-rule:nonzero;stroke:none"
         d="m 9277.9,3247.6 c -74.15,-11 -182.97,-194.8 -31.24,-179.8 151.6,15 164.43,199.7 31.24,179.8" /><g
         transform="scale(1.05888)"
         id="g400"><path
           id="path402"
           style="fill:#aba491;fill-opacity:1;fill-rule:nonzero;stroke:none"
           d="m 3876.01,15107.8 c 172.12,-289.9 1254.33,541.7 1116.6,866.9 -137.79,325.3 -1359.74,-457.3 -1116.6,-866.9" /></g><g
         transform="scale(1.27425)"
         id="g404"><path
           id="path406"
           style="fill:#f79074;fill-opacity:1;fill-rule:nonzero;stroke:none"
           d="m 4263.2,16259.1 c -235.16,40.9 -331.01,-173.3 -546.99,-401.3 -448.43,-473.4 -1203.7,-1042.4 -1255.93,-1529.2 -37.24,-347.2 484.35,-705.6 814.16,-463.9 358.61,262.8 773.15,690.8 999.59,809.9" /></g><g
         transform="scale(1.13223)"
         id="g408"><path
           id="path410"
           style="fill:#f79074;fill-opacity:1;fill-rule:nonzero;stroke:none"
           d="m 3845.68,16300 c 494.88,-371.9 1048.75,-2318.4 1359.67,-2740.6 105.51,-275.1 -320.61,-723 -614.88,-417.3 -554.9,732 -1895.89,2151.4 -1819.09,3023.4" /></g><g
         transform="scale(1.19614)"
         id="g412"><path
           id="path414"
           style="fill:#d9d7cb;fill-opacity:1;fill-rule:nonzero;stroke:none"
           d="m 3249.55,16300 c -310.42,-244.9 -711.05,-700 -738.7,-1075.6 -51.92,-705.2 753.15,-1631 920.38,-1850.3 33.51,331.9 794.8,747 988.46,767.5 -124.2,230.7 -295.18,736.8 -416.32,901.2 181.7,97.3 259.57,220.6 259.57,220.6" /></g><g
         transform="scale(1.28697)"
         id="g416"><path
           id="path418"
           style="fill:#c67a1b;fill-opacity:1;fill-rule:nonzero;stroke:none"
           d="m 4211.2,16300 c -349.7,-152.7 -906.53,-847.4 -1063.35,-955.9 -156.81,-108.6 -205.06,-138.7 -186.97,-265.4 18.09,-126.6 687.55,-946.9 928.81,-1007.2 180.93,0 313.62,355.9 597.08,410.1" /></g><g
         transform="scale(1.15245)"
         id="g420"><path
           id="path422"
           style="fill:#efa90f;fill-opacity:1;fill-rule:nonzero;stroke:none"
           d="m 4156.51,16076 c 117.5,-166.8 257.11,-244.5 257.11,-244.5 -93.09,-62 -353.85,89.1 -687.43,468.5" /></g><g
         transform="scale(1.28247)"
         id="g424"><path
           id="path426"
           style="fill:#efa90f;fill-opacity:1;fill-rule:nonzero;stroke:none"
           d="m 4240.72,16300 c -238.14,-121.6 -1041.21,-935.6 -1206.77,-1039.8 -62.67,-231.4 439.67,-882.7 784.66,-889.9 230.84,90 484.19,531.4 550.76,1160.8 66.58,629.5 -128.65,768.9 -128.65,768.9" /></g><g
         transform="scale(1.28175)"
         id="g428"><path
           id="path430"
           style="fill:#fbc130;fill-opacity:1;fill-rule:nonzero;stroke:none"
           d="m 4273.86,16300 c -450.12,-208.4 -948.8,-862.5 -1093.5,-946.9 59.04,-269.4 406.81,-713.5 519.57,-713.5 346.88,201.8 726.41,1059.3 573.93,1660.4" /></g><g
         transform="scale(1.20847)"
         id="g432"><path
           id="path434"
           style="fill:#fbc130;fill-opacity:1;fill-rule:nonzero;stroke:none"
           d="m 3243.58,16211.1 c -83.77,-79.7 254.97,-703 595.31,-825.1 -291.67,347.8 -501.74,914 -595.31,825.1" /></g><g
         transform="scale(1.18313)"
         id="g436"><path
           id="path438"
           style="fill:#f3ebee;fill-opacity:1;fill-rule:nonzero;stroke:none"
           d="m 3216.82,16300 c -242.73,-204.3 -526.82,-530.1 -566.79,-829.4 -37.9,-283.9 458.47,-1200.7 944.68,-1600.9 323.28,324.8 728.21,452.7 728.21,452.7 -73.38,246.9 -259.09,729.7 -401.81,840.5 -142.72,110.8 -661.01,244.9 -661.01,244.9 209.95,49.6 610.14,-101.3 610.14,-101.3 65.6,39.4 65.6,39.4 65.6,39.4 -225.2,155.3 -604.44,761.3 -719.02,954.1" /></g><g
         transform="scale(1.18454)"
         id="g440"><path
           id="path442"
           style="fill:#1d1c22;fill-opacity:1;fill-rule:nonzero;stroke:none"
           d="m 3098.55,16300 c 79.03,-240.7 775.14,-985.6 992.94,-1081.7 -31.2,-17.6 -48.94,-28.3 -48.94,-28.3 -182.43,-21.4 -1013.55,584.9 -1098.71,949.9 71.19,86.3 154.71,160.1 154.71,160.1" /></g><g
         transform="scale(1.15473)"
         id="g444"><path
           id="path446"
           style="fill:#1d1c22;fill-opacity:1;fill-rule:nonzero;stroke:none"
           d="m 3965.43,15683 c -317.34,154.4 -924.27,344.3 -1147.39,617 -91.54,-89.4 -141.66,-251.5 -141.66,-251.5 117.18,-188.5 981.74,-318.2 1380.74,-448.3" /></g><g
         transform="scale(1.11713)"
         id="g448"><path
           id="path450"
           style="fill:#1d1c22;fill-opacity:1;fill-rule:nonzero;stroke:none"
           d="m 2685.84,16223.5 c 160.08,-59.1 573.55,76.5 972.75,20.9 -278.26,-38.1 -586.72,-247.3 -929.08,-335.1 -43.67,107.7 -43.67,314.2 -43.67,314.2" /></g><g
         transform="scale(1.11003)"
         id="g452"><path
           id="path454"
           style="fill:#1d1c22;fill-opacity:1;fill-rule:nonzero;stroke:none"
           d="m 4281.6,16246.5 c -252.61,53.5 -678.74,17 -1445.31,-503.1 17.83,-71.9 93.14,-208.5 93.14,-208.5 412.51,279.6 1068.89,623.8 1439.96,584.6 -31,97.1 -87.79,127 -87.79,127" /></g><g
         transform="scale(1.09308)"
         id="g456"><path
           id="path458"
           style="fill:#1d1c22;fill-opacity:1;fill-rule:nonzero;stroke:none"
           d="m 3104.87,15541.1 c 56.95,-112.1 148.38,-235.8 148.38,-235.8 299.13,294.1 1015.5,814.5 1328.36,762.6 0,0 -73.37,159.6 -99.61,212.9 -243.21,19.2 -1031.39,-390.3 -1377.13,-739.7" /></g><g
         transform="scale(1.06404)"
         id="g460"><path
           id="path462"
           style="fill:#1d1c22;fill-opacity:1;fill-rule:nonzero;stroke:none"
           d="m 3537.92,15445.3 c 309.58,465.6 958.3,854.7 1259.47,831.6 41.13,-98 95.16,-222.5 95.16,-222.5 -293.68,-41.3 -788.93,-320.1 -1186.9,-828.1 0,0 -141.31,183.1 -167.73,219" /></g><g
         transform="scale(1.06296)"
         id="g464"><path
           id="path466"
           style="fill:#31303d;fill-opacity:1;fill-rule:nonzero;stroke:none"
           d="m 4757.65,16052.2 c 62.47,13.2 -19.7,185.5 -82.77,216.7 -63.19,31.1 -643.03,-203.8 -912.47,-557.9 14.03,-48.4 179.82,-179.7 179.82,-179.7 255.58,294.6 581.3,471.5 815.42,520.9" /></g><g
         transform="scale(1.09035)"
         id="g468"><path
           id="path470"
           style="fill:#31303d;fill-opacity:1;fill-rule:nonzero;stroke:none"
           d="m 4469.65,16110.9 c -15.35,51.2 -119.05,189.1 -119.05,189.1 -235.68,-40 -772.59,-262.7 -1031.84,-565.7 44.1,-65.4 133.78,-166.1 133.78,-166.1 212.39,199.9 729.7,534.4 1017.11,542.7" /></g><g
         transform="scale(1.11127)"
         id="g472"><path
           id="path474"
           style="fill:#31303d;fill-opacity:1;fill-rule:nonzero;stroke:none"
           d="m 4187.74,16116.8 c -48.89,63.4 -103.95,106 -103.95,106 -262.91,77.2 -851.41,-188.3 -1046.36,-374.9 1.7,-76.4 88.49,-167.6 88.49,-167.6 228.73,171.7 695.83,428.5 1061.82,436.5" /></g><g
         transform="scale(1.17712)"
         id="g476"><path
           id="path478"
           style="fill:#31303d;fill-opacity:1;fill-rule:nonzero;stroke:none"
           d="m 3671.27,15656.4 c 30.58,-26.6 -45.46,-73 -131.41,-49.2 -85.93,23.8 -424.24,352.2 -549.09,556.2 48.2,90.4 155.89,136.6 155.89,136.6 187.31,-228.5 449.48,-578.3 524.61,-643.6" /></g><g
         transform="scale(1.15683)"
         id="g480"><path
           id="path482"
           style="fill:#31303d;fill-opacity:1;fill-rule:nonzero;stroke:none"
           d="m 3485.99,15758.5 c 145.44,-28.7 28.13,73.1 -170.2,153.1 -198.17,80.1 -482.39,388.4 -581.3,149.7 -75.61,-182.4 698.46,-292.4 751.5,-302.8" /></g><g
         transform="scale(1.11687)"
         id="g484"><path
           id="path486"
           style="fill:#31303d;fill-opacity:1;fill-rule:nonzero;stroke:none"
           d="m 3664.78,16261.9 c -10.29,38.1 -720.31,3.1 -832.53,-74.2 -28.72,-125.1 78.76,-187.6 78.76,-187.6 205.06,41 758.99,242.4 753.77,261.8" /></g><path
         id="path488"
         style="fill:#f79074;fill-opacity:1;fill-rule:nonzero;stroke:none"
         d="m 5291.65,13848.2 c -99.06,92.7 -259.84,455.4 -175.06,543.7 79.61,83 252.13,-140.8 252.13,-140.8 87.24,-119 124.83,-293.1 124.83,-293.1" /><path
         id="path490"
         style="fill:#f79074;fill-opacity:1;fill-rule:nonzero;stroke:none"
         d="m 5812.8,15482.6 c 26.74,-47.1 699.82,-449.3 894.71,-801.2 117.74,-212.6 -1045.59,-832.6 -1261.35,-610.7 -136.86,140.7 -252.87,833.2 -252.87,833.2" /><path
         id="path492"
         style="fill:#f79074;fill-opacity:1;fill-rule:nonzero;stroke:none"
         d="m 6701.03,14692.7 c 133.93,-207.1 356.2,-1096.9 285.06,-1184.7 -170.6,-210.7 -419.99,768.2 -526.69,878" /><path
         id="path494"
         style="fill:#f79074;fill-opacity:1;fill-rule:nonzero;stroke:none"
         d="m 6548.82,14492 c 40.99,-101.2 -21.26,-469.3 -84.86,-546.4 -63.65,-77 -326.62,-147.8 -364.97,-25.6 -38.41,122.3 -64.95,306.9 -64.95,306.9" /><path
         id="path496"
         style="fill:#f79074;fill-opacity:1;fill-rule:nonzero;stroke:none"
         d="m 6280.79,14346.7 c 28.83,-105.5 -59,-450 -131.25,-519.1 -72.2,-69.1 -341.72,-108.5 -365.43,17.4 -23.76,125.9 -28.53,312.4 -28.53,312.4" /><path
         id="path498"
         style="fill:#f79074;fill-opacity:1;fill-rule:nonzero;stroke:none"
         d="m 5964.4,14309.4 c 32.53,-104.3 -43.18,-451.7 -112.94,-523.4 -69.77,-71.5 -326.77,-91.3 -354.97,33.7 -28.1,125 -50.33,282 -50.33,282" /><path
         id="path500"
         style="fill:#f79074;fill-opacity:1;fill-rule:nonzero;stroke:none"
         d="m 5669.48,14258.1 c 25.25,-93.6 -53.68,-399.1 -118.01,-460.2 -64.31,-61.1 -179.47,-23.6 -239.96,27.9 -112.83,96.1 -182.7,314.3 -182.7,314.3" /><path
         id="path502"
         style="fill:#f79074;fill-opacity:1;fill-rule:nonzero;stroke:none"
         d="m 5358.84,14233.2 c 24.83,-56.4 29.96,-71.9 29.96,-71.9 -28.44,-25.9 -61.97,-104.2 -63.31,-137.9" /><g
         transform="scale(1.03052)"
         id="g504"><path
           id="path506"
           style="fill:#fabc8b;fill-opacity:1;fill-rule:nonzero;stroke:none"
           d="m 5039.51,16300 c 237.32,-446.3 521.75,-1208.4 563.85,-1301.8 42.1,-93.4 -226.25,-338.5 -374.68,-286 -148.44,52.5 -871.3,1079.9 -871.3,1079.9 249.09,351.6 623.52,507.4 682.13,507.9" /></g><path
         id="path508"
         style="fill:#fabc8b;fill-opacity:1;fill-rule:nonzero;stroke:none"
         d="m 5755.58,15438 c 88.15,-15.5 744.76,-534.6 876.56,-704.7 131.81,-170 372,-1014.6 340.96,-1181.5 -31.06,-166.9 -201.82,243.5 -341.53,734.9 11.64,177.1 -26.72,280.4 -69.62,283.4 -53.27,3.7 -19.5,-601.8 -227.31,-622.4 21.38,180.6 74.92,520.9 -48.24,496.7 -93.36,-18.3 32.81,-535.5 -252.36,-620.9 49.91,237.5 61.47,586.2 -61.88,562.6 -60.28,-11.6 -17.59,-532.1 -193.26,-578.2 -128.92,-33.8 71.19,538.8 -86.53,538.8 -108.67,0 0.18,-451.4 -178.53,-498.5 -67.68,-17.9 -63.98,128.2 -40.08,237.4 59.37,271.2 -232.87,759.9 -69.17,1068" /><path
         id="path510"
         style="fill:#f6838b;fill-opacity:1;fill-rule:nonzero;stroke:none"
         d="m 6975.82,13707 c -13.4,14.1 -107.99,-8 -115.53,-41.8 -7.51,-33.9 48.13,-159.2 101.17,-151.6 50.44,7.2 27.76,179.4 14.36,193.4" /><path
         id="path512"
         style="fill:#f25542;fill-opacity:1;fill-rule:nonzero;stroke:none"
         d="m 5116.59,14391.9 c 93.23,-19.9 241.16,-306.6 254.02,-368.5 16.86,111.8 -0.03,208.9 -30.27,261.5 -161.57,191.1 -223.75,107 -223.75,107" /><g
         transform="scale(1.76721)"
         id="g514"><path
           id="path516"
           style="fill:#c67a1b;fill-opacity:1;fill-rule:nonzero;stroke:none"
           d="m 2968.24,16169.3 c -119.48,130.7 -383.24,2.4 -311.84,-170.7 71.38,-173 388.56,77.4 311.84,170.7" /></g><g
         transform="scale(1.76054)"
         id="g518"><path
           id="path520"
           style="fill:#efa90f;fill-opacity:1;fill-rule:nonzero;stroke:none"
           d="m 2797.87,16277.2 c 72.2,22.8 156.01,-39.9 33.6,-97.6 -122.44,-57.6 -173.58,53.5 -33.6,97.6" /></g><g
         transform="scale(1.60305)"
         id="g522"><path
           id="path524"
           style="fill:#395b84;fill-opacity:1;fill-rule:nonzero;stroke:none"
           d="m 2439.45,15446.3 c 0,0 -735.42,-1105 -447.09,-1580.5 165.2,-272.3 464.85,236 1810.61,217.1 1020.29,1283.8 -311.93,2217.1 -311.93,2217.1" /></g><g
         transform="scale(1.49955)"
         id="g526"><path
           id="path528"
           style="fill:#477596;fill-opacity:1;fill-rule:nonzero;stroke:none"
           d="m 2534.57,16300 c -413.71,-521.8 -531.96,-1206.8 -389.36,-1421.9 -36.38,218.1 214.25,1174.6 389.36,1421.9" /></g><g
         transform="scale(1.49641)"
         id="g530"><path
           id="path532"
           style="fill:#b8891c;fill-opacity:1;fill-rule:nonzero;stroke:none"
           d="m 2710.71,16300 c -383.76,-475.5 -544.4,-1209.7 -452.59,-1396.8 91.75,-187 836.35,306.6 1646.06,206.7 809.75,-99.8 -661.21,1188.9 -718.4,1184.2" /></g><g
         transform="scale(1.49623)"
         id="g534"><path
           id="path536"
           style="fill:#8b631e;fill-opacity:1;fill-rule:nonzero;stroke:none"
           d="m 2690.38,16300 c -663.18,-1038.7 -71.51,-1344.7 901.45,-1033.1 973.08,311.5 -264.66,800.6 -264.66,800.6" /></g><g
         transform="scale(1.59208)"
         id="g538"><path
           id="path540"
           style="fill:#fabc8b;fill-opacity:1;fill-rule:nonzero;stroke:none"
           d="m 5650.32,16016.7 c 77.16,15.8 204.35,283.3 409.02,169.4 125.65,-69.8 108.92,-588.6 -199.2,-679.1 -128.56,-37.8 -224.91,140.5 -225.91,145.7" /></g><g
         transform="scale(1.57391)"
         id="g542"><path
           id="path544"
           style="fill:#f79074;fill-opacity:1;fill-rule:nonzero;stroke:none"
           d="m 5855.84,15969.1 c -9.07,201.1 163.74,300.4 241.23,330.9 -95.51,-139.3 -115.13,-480.2 -92.2,-538.4" /></g><g
         transform="scale(1.74938)"
         id="g546"><path
           id="path548"
           style="fill:#f79074;fill-opacity:1;fill-rule:nonzero;stroke:none"
           d="m 4860.75,15525.2 c 454.2,-409.7 519.8,-1104 568.03,-1257.4 253.64,-808.3 -338.77,-1425 -837.05,-1523.2 -901.15,-177.6 -2020.26,388.6 -2191.09,1232.5 -376.4,1861.2 1701.89,2322.9 2460.11,1548.1" /></g><g
         transform="scale(1.49003)"
         id="g550"><path
           id="path552"
           style="fill:#f79074;fill-opacity:1;fill-rule:nonzero;stroke:none"
           d="m 3289.19,16014 c -134.42,58.4 -599.29,286 -745.05,20.2 -111.73,-203.7 310.32,-678 656.39,-636.3 178.02,21.5 207.88,271.6 206.41,277.9" /></g><g
         transform="scale(1.62051)"
         id="g554"><path
           id="path556"
           style="fill:#fabc8b;fill-opacity:1;fill-rule:nonzero;stroke:none"
           d="m 3240.82,15396.4 c -18.02,-600.5 588.53,-1860.7 1856.64,-1511.2 528.11,145.6 1006.59,952.2 685.96,1637 -55.05,117.5 -17.73,315.8 -251.18,684.8 -106.99,6.1 -267.63,93 -267.63,93 105.67,-328.4 22.29,-355.8 -56.47,-382 -78.76,-26.2 -437.27,192.1 -550.61,362.1 -37.78,-340.9 -270.25,-450.1 -388.92,-455.7 -118.6,-5.5 -190.61,165.8 -212.58,346.9 -370.86,-113.7 -809.6,-587.6 -815.21,-774.9" /></g><g
         transform="scale(1.60201)"
         id="g558"><path
           id="path560"
           style="fill:#772e19;fill-opacity:1;fill-rule:nonzero;stroke:none"
           d="m 5202.98,15524.4 c -78.36,78.4 -114.8,666.3 224.97,722.9 316.44,52.7 428.85,-366.2 402.8,-512.1 -50.25,-281.6 -474.49,-364.3 -627.77,-210.8" /></g><g
         transform="scale(1.59637)"
         id="g562"><path
           id="path564"
           style="fill:#fabfca;fill-opacity:1;fill-rule:nonzero;stroke:none"
           d="m 5225.23,15568.5 c -73.88,73.9 -106.29,619.8 213.05,679.4 279.4,52.1 399.23,-347.1 373.11,-484.4 -51.58,-271.5 -441.63,-339.8 -586.16,-195" /></g><g
         transform="scale(1.59218)"
         id="g566"><path
           id="path568"
           style="fill:#ffffff;fill-opacity:1;fill-rule:nonzero;stroke:none"
           d="m 5238.96,15609.4 c -70.1,70.1 -127.15,597 144.29,641.2 304.06,49.4 454.86,-355.2 410.02,-503 -61.95,-204.3 -417.3,-275.4 -554.31,-138.2" /></g><g
         transform="scale(1.59368)"
         id="g570"><path
           id="path572"
           style="fill:#5d9ac9;fill-opacity:1;fill-rule:nonzero;stroke:none"
           d="m 5338.61,16177.8 c 310.08,122.2 489.77,-437.2 354.05,-573.2 -100.18,-76.1 -310.25,-122.2 -400.88,-42.2 -93.28,82.3 -167.23,531.1 46.83,615.4" /></g><g
         transform="scale(1.64616)"
         id="g574"><path
           id="path576"
           style="fill:#772e19;fill-opacity:1;fill-rule:nonzero;stroke:none"
           d="m 5041.12,16286.5 c -61.71,-10.7 -163.74,-224.3 -109.72,-202.5 262.75,106.2 369.01,24.1 376.78,55.6 15.99,65.1 -189.12,160.4 -267.06,146.9" /></g><g
         transform="scale(1.61041)"
         id="g578"><path
           id="path580"
           style="fill:#772e19;fill-opacity:1;fill-rule:nonzero;stroke:none"
           d="m 3638.65,16262.2 c 71.5,37.8 269.15,-16.9 280.38,-62.3 11.27,-45.4 -257.3,-21.7 -542.02,-336.5 -27.49,128.7 187.34,359.5 261.64,398.8" /></g><g
         transform="scale(1.57867)"
         id="g582"><path
           id="path584"
           style="fill:#131b22;fill-opacity:1;fill-rule:nonzero;stroke:none"
           d="m 5415.18,16213.7 c 306.92,86.3 454.47,-482 155.91,-523.6 -298.57,-41.6 -354.52,467.7 -155.91,523.6" /></g><g
         transform="scale(1.56513)"
         id="g586"><path
           id="path588"
           style="fill:#ffffff;fill-opacity:1;fill-rule:nonzero;stroke:none"
           d="m 5854.99,16242.4 c -59.2,57.6 -199.53,-73.1 -166.33,-132.4 33.12,-59.2 256.22,45 166.33,132.4" /></g><g
         transform="scale(1.57249)"
         id="g590"><path
           id="path592"
           style="fill:#772e19;fill-opacity:1;fill-rule:nonzero;stroke:none"
           d="m 4529.9,15595 c 47.84,112.7 -180.07,705 -625.07,612.6 -396.03,-82.3 -370.13,-653.4 -241.68,-767.5 232.83,-206.8 773.28,-65.5 866.75,154.9" /></g><g
         transform="scale(1.56577)"
         id="g594"><path
           id="path596"
           style="fill:#fabfca;fill-opacity:1;fill-rule:nonzero;stroke:none"
           d="m 4553.16,15664.3 c 43.43,102.3 -162.02,635.7 -566.76,553.1 -404.83,-82.6 -337.88,-590.3 -221.16,-693.9 211.67,-188 702.86,-59.6 787.92,140.8" /></g><g
         transform="scale(1.56109)"
         id="g598"><path
           id="path600"
           style="fill:#ffffff;fill-opacity:1;fill-rule:nonzero;stroke:none"
           d="m 4496.8,15676.3 c 67.08,122.5 -127.21,623.7 -502.11,547.2 -374.88,-76.5 -284.75,-550.9 -176.57,-646.9 196,-174.1 581.78,-77.1 678.68,99.7" /></g><g
         transform="scale(1.55612)"
         id="g602"><path
           id="path604"
           style="fill:#5d9ac9;fill-opacity:1;fill-rule:nonzero;stroke:none"
           d="m 3984.15,16215.8 c 295.59,84.2 579.81,-452.1 403.68,-616 -165.81,-97 -451.83,-100.7 -521.89,-32.9 -70.07,67.8 -202.54,557.6 118.21,648.9" /></g><g
         transform="scale(1.54475)"
         id="g606"><path
           id="path608"
           style="fill:#131b22;fill-opacity:1;fill-rule:nonzero;stroke:none"
           d="m 4005.21,16189 c 243.47,111 530.18,-457.3 204.95,-554.2 -325.26,-97 -455.88,439.8 -204.95,554.2" /></g><g
         transform="scale(1.52743)"
         id="g610"><path
           id="path612"
           style="fill:#ffffff;fill-opacity:1;fill-rule:nonzero;stroke:none"
           d="m 4522.87,16237.2 c -64.53,62.8 -217.4,-79.6 -181.28,-144.2 36.08,-64.6 279.21,49 181.28,144.2" /></g><g
         transform="scale(1.50737)"
         id="g614"><path
           id="path616"
           style="fill:#ffffff;fill-opacity:1;fill-rule:nonzero;stroke:none"
           d="m 4108.54,16267 c 62.63,33 92.92,-85.3 43.92,-111.4 -48.98,-26.2 -106.61,78.5 -43.92,111.4" /></g><g
         transform="scale(1.54405)"
         id="g618"><path
           id="path620"
           style="fill:#ffffff;fill-opacity:1;fill-rule:nonzero;stroke:none"
           d="m 5534.07,16267.8 c 61.13,32.2 90.73,-83.3 42.89,-108.8 -47.83,-25.5 -104.08,76.7 -42.89,108.8" /></g><g
         transform="scale(1.58557)"
         id="g622"><path
           id="path624"
           style="fill:#1a1515;fill-opacity:1;fill-rule:nonzero;stroke:none"
           d="m 3264.81,16300 c -318.49,-347.5 -147.06,-1035.5 76.3,-1408.2 -106.44,-64.3 -183.29,-31 -183.29,-31 -233.32,325.5 -578.98,346.4 -578.98,346.4 -193.69,138.2 -169.62,410.8 -96.55,681.6" /></g><g
         transform="scale(1.5703)"
         id="g626"><path
           id="path628"
           style="fill:#392933;fill-opacity:1;fill-rule:nonzero;stroke:none"
           d="m 3192.86,16300 c -155.61,-327.5 43.82,-920.2 227.9,-1123.7 -204.97,63.3 -415.74,333.1 -455.09,475.4 31.43,-202.6 117.05,-308.3 117.05,-308.3 -187.97,65.4 -352.38,256.4 -352.38,256.4 144.71,423.2 462.52,700.2 462.52,700.2" /></g><g
         transform="scale(1.74666)"
         id="g630"><path
           id="path632"
           style="fill:#1a1515;fill-opacity:1;fill-rule:nonzero;stroke:none"
           d="m 4630.06,15435.3 c 495.39,122.5 919.81,-235.7 858.99,-359.2 -60.79,-123.4 -834.66,297.3 -1103.41,382.4 636.16,-172.1 508.32,-496.2 429.78,-547 -78.63,-50.9 -631.86,507.2 -631.86,507.2 0,0 -38.64,-576.9 -223.65,-637.6 -185.06,-60.6 -193.22,403.7 -141.59,533.5 -530.51,-170.7 -815.67,540.4 -155.47,762.9 660.28,222.5 1468.26,-188.5 1067.09,-494.5" /></g><g
         transform="scale(1.73712)"
         id="g634"><path
           id="path636"
           style="fill:#392933;fill-opacity:1;fill-rule:nonzero;stroke:none"
           d="m 3520.46,15754.5 c 176.62,-19.2 343.96,-167.3 343.96,-167.3 43.71,158.4 -87.73,310.7 -87.73,310.7 186.36,-37.9 286.78,-321.7 286.78,-321.7 114.72,-5.1 391.15,44.1 391.15,44.1 -43.45,302.9 -143.58,304.4 -193.66,348.4 181.06,-23.3 304.16,-272.5 388.53,-374.6 -12,357.4 -321.35,705.9 -849.71,448.4 174.9,-28.7 290.23,-144.6 290.23,-144.6 -185.06,115.9 -406.59,133.3 -545.77,-5.6" /></g><g
         transform="scale(1.6383)"
         id="g638"><path
           id="path640"
           style="fill:#392933;fill-opacity:1;fill-rule:nonzero;stroke:none"
           d="m 4334.63,16300 c 18.59,-276.3 -88.38,-514.3 -196.51,-508.2 -107.66,101 -95.67,355.2 3.25,494.3" /></g><g
         transform="scale(1.64872)"
         id="g642"><path
           id="path644"
           style="fill:#1a1515;fill-opacity:1;fill-rule:nonzero;stroke:none"
           d="m 4899.05,16212.4 c 354.61,-95.1 458.68,-306.5 439.95,-363.9 96.99,139.7 62.36,385 -417.43,451.5" /></g><g
         transform="scale(1.6496)"
         id="g646"><path
           id="path648"
           style="fill:#1a1515;fill-opacity:1;fill-rule:nonzero;stroke:none"
           d="m 4392.92,16263.9 c 221.39,-39.3 294.23,-428.9 259.68,-577.4 114.99,169.3 118.1,485.1 -221.11,613.5" /></g><g
         transform="scale(1.45711)"
         id="g650"><path
           id="path652"
           style="fill:#f79074;fill-opacity:1;fill-rule:nonzero;stroke:none"
           d="m 4665.84,16203.3 c -91.19,-84.2 36.15,-132.7 176.02,-91.1 -62.05,27.1 -71.31,187.8 -176.02,91.1" /></g><g
         transform="scale(1.47513)"
         id="g654"><path
           id="path656"
           style="fill:#f79074;fill-opacity:1;fill-rule:nonzero;stroke:none"
           d="m 6080.8,16221.1 c 86.91,-86.6 8.97,-122.3 -133.99,-104.1 56.18,36.3 54.81,183 133.99,104.1" /></g><g
         transform="scale(1.44688)"
         id="g658"><path
           id="path660"
           style="fill:#c22d32;fill-opacity:1;fill-rule:nonzero;stroke:none"
           d="m 4755.81,16285.8 c -74.37,-55.3 76.55,-107.2 433.76,-53 -183.57,-15.2 -324.53,-13.3 -375.96,20.6 -42,27.6 -38.67,46.6 -57.8,32.4" /></g><g
         transform="scale(1.46689)"
         id="g662"><path
           id="path664"
           style="fill:#c22d32;fill-opacity:1;fill-rule:nonzero;stroke:none"
           d="m 5874.09,16172.4 c 74.07,11.2 143.51,47.4 161.2,87.5 11.1,25.2 25,40.1 39.54,23.7 34.8,-39.5 -24.16,-77.7 -196.33,-122.3" /></g><g
         transform="scale(1.45681)"
         id="g666"><path
           id="path668"
           style="fill:#f26473;fill-opacity:1;fill-rule:nonzero;stroke:none"
           d="m 5654.84,16164.9 -685.63,-63.4 c 0,0 423.74,-118.3 628.17,-78.5 204.51,39.8 302.77,153.2 411.24,277 -81.35,-45.2 -269.04,-111.3 -353.78,-135.1" /></g><g
         transform="scale(1.46014)"
         id="g670"><path
           id="path672"
           style="fill:#e93b42;fill-opacity:1;fill-rule:nonzero;stroke:none"
           d="m 5627.62,16214.7 c -77.77,-46.7 -108.45,10.6 -245.79,-28.9 -137.22,-39.4 -400.09,-134.7 -574.44,-101.3 587.48,-58.1 1036.94,63.7 1207.52,195.3 -146.32,-50.3 -245.24,20.2 -387.29,-65.1" /></g><g
         transform="scale(1.49795)"
         id="g674"><path
           id="path676"
           style="fill:#f89d81;fill-opacity:1;fill-rule:nonzero;stroke:none"
           d="m 5415.27,16294.3 c 69.03,-4.6 79.18,-35.5 153.88,-45 99.4,-12.7 46.23,-87.5 -50.76,-116.7 -96.97,-29.1 -199.31,-59 -300.03,-70.1 -100.78,-11.1 -84.04,70.9 -11.88,108.8 53.78,28.3 127.09,128.7 208.79,123" /></g><g
         transform="scale(1.49182)"
         id="g678"><path
           id="path680"
           style="fill:#cf5a44;fill-opacity:1;fill-rule:nonzero;stroke:none"
           d="m 5510.71,16272 c 12.33,23.9 125.03,28 117.5,3.2 -12.82,-42.7 -142.5,-51.6 -117.5,-3.2" /></g><g
         transform="scale(1.49591)"
         id="g682"><path
           id="path684"
           style="fill:#f89d81;fill-opacity:1;fill-rule:nonzero;stroke:none"
           d="m 5103.18,16300 c -85.02,-84.5 -64.09,-240.4 104.19,-215.5 53.58,2.5 -12.81,43.8 -12.81,43.8 -86.46,9.9 -100.18,57.5 -91.38,171.7" /></g><g
         transform="scale(1.48647)"
         id="g686"><path
           id="path688"
           style="fill:#cf5a44;fill-opacity:1;fill-rule:nonzero;stroke:none"
           d="m 5327.74,16282.2 c -26.13,17.8 -137.36,-40.4 -117.25,-60.3 31.79,-31.5 162.48,29.5 117.25,60.3" /></g><g
         transform="scale(1.46333)"
         id="g690"><path
           id="path692"
           style="fill:#f25542;fill-opacity:1;fill-rule:nonzero;stroke:none"
           d="m 3230.43,16129.7 c -262.94,170.3 -511.74,159.7 -574.69,31.7 152.26,5.7 442.36,-76.1 470.89,-148.4 -52.6,-120.9 101.02,-166.7 162.48,-142.6 -201.63,87.8 -58.68,259.3 -58.68,259.3" /></g><g
         transform="scale(1.48515)"
         id="g694"><path
           id="path696"
           style="fill:#fabc8b;fill-opacity:1;fill-rule:nonzero;stroke:none"
           d="m 3126.84,16019.9 c -150.69,168.3 -389.17,280.1 -543.45,112.1 -44.45,-72.9 -14.82,-124.5 -14.82,-124.5 35.72,81.9 304.78,103.8 558.27,12.4" /></g><g
         transform="scale(1.65506)"
         id="g698"><path
           id="path700"
           style="fill:#392933;fill-opacity:1;fill-rule:nonzero;stroke:none"
           d="m 5329.77,16240.8 c 285.96,-10.6 478.59,-229.3 408.81,-322.7 -299.16,203.6 -563.1,294.4 -682.03,301.6 225.08,-53.6 289.72,-251.7 243.33,-323.7 -20.23,156.9 -250.32,285.1 -372.43,317.3 189.62,-161.6 199.43,-327.9 139.48,-392.6 -94.92,105.6 -532.19,444.2 -532.19,444.2 188.27,14.7 418.64,-217 418.64,-217 -77.91,137.8 -176.53,252.1 -176.53,252.1 140.85,-7.9 552.92,-59.2 552.92,-59.2" /></g><g
         transform="scale(1.77153)"
         id="g702"><path
           id="path704"
           style="fill:#395b84;fill-opacity:1;fill-rule:nonzero;stroke:none"
           d="m 3908.07,15765 c 523.71,141.5 749.02,-324.7 598.97,-344.3 -530.46,-69.2 -797.43,-236 -894.69,-258.4 -97.3,-22.4 -184.46,472.9 295.72,602.7 z M 2207.34,13659.7 c 184.5,737 1855.77,1711 2887.13,1518.7 28.54,264.4 -788.1,1529.5 -2095.82,988 C 1691,15624.9 1813.02,14338.6 2207.34,13659.7" /></g><g
         transform="scale(1.77153)"
         id="g706"><path
           id="path708"
           style="fill:#477596;fill-opacity:1;fill-rule:nonzero;stroke:none"
           d="m 2897.05,16104.7 c -665.6,-324.3 -693.89,-1140.7 -480.22,-1647.4 180.03,235.1 863.07,595.2 1108.83,699 -153.58,385.2 184.3,617.2 378.43,673.1 194.2,56 615.28,-21.1 715.14,-352.7 143.89,34.5 339.23,-17.8 339.23,-17.8 -347.56,649.1 -1091.14,1118.5 -2061.41,645.8" /></g><g
         transform="scale(1.68753)"
         id="g710"><path
           id="path712"
           style="fill:#efa90f;fill-opacity:1;fill-rule:nonzero;stroke:none"
           d="m 3834.48,15930.8 c 252.15,170.4 674.74,369.2 816.09,334.8 66.91,-16.2 87.53,-259.9 6.95,-279.1 -313.03,-62.9 -700.98,-267.4 -700.98,-267.4 -47.39,-19.5 -77.77,36 -77.77,36" /></g><g
         transform="scale(1.68406)"
         id="g714"><path
           id="path716"
           style="fill:#fbc130;fill-opacity:1;fill-rule:nonzero;stroke:none"
           d="m 4643.98,16299.7 c 61.19,0.3 93.58,-217.1 25.82,-232.1 -67.84,-15 -74,231.9 -25.82,232.1" /></g><g
         transform="scale(1.68511)"
         id="g718"><path
           id="path720"
           style="fill:#477596;fill-opacity:1;fill-rule:nonzero;stroke:none"
           d="m 3853.21,15958.8 c 230.78,173.2 661.4,341.2 718.98,322.2 57.53,-18.9 99.54,-187.5 39.93,-211 -59.65,-23.5 -446.25,-162 -703.18,-299.2 -324.6,-133.4 -949.55,-463.9 -1324.35,-876.8 -49.47,62.6 -85.1,167.1 -9.39,268.6 75.77,101.5 567.56,515.8 1278.01,796.2" /></g><g
         transform="scale(1.67686)"
         id="g722"><path
           id="path724"
           style="fill:#477596;fill-opacity:1;fill-rule:nonzero;stroke:none"
           d="m 4770.27,16269 c 191.29,31 466.07,17.4 515.48,-13 49.39,-30.3 69.32,-166.5 49.09,-169 -165.01,48.6 -512.35,19.7 -579.7,9.8 93.81,72.9 15.13,172.2 15.13,172.2" /></g><g
         transform="scale(1.77153)"
         id="g726"><path
           id="path728"
           style="fill:#5285a7;fill-opacity:1;fill-rule:nonzero;stroke:none"
           d="m 3030.96,16115.5 c 644.86,358.4 1630.65,12.4 1505.64,-387.8 -534.48,362 -1248.82,-25.4 -1088.61,-533.8 -599.02,-267.6 -1122.21,529.6 -417.03,921.6" /></g><g
         transform="scale(1.68208)"
         id="g730"><path
           id="path732"
           style="fill:#5285a7;fill-opacity:1;fill-rule:nonzero;stroke:none"
           d="m 4549.52,16294.7 c 61.69,-3.3 71.92,-112.5 34.49,-157.6 -37.46,-45.1 -432.87,-134.7 -454.56,-79.7 -21.68,54.9 321.29,242.6 420.07,237.3" /></g></g></g></svg>